<svg width="10" height="10" viewBox="0 0 10 10" fill="none" xmlns="http://www.w3.org/2000/svg">
<path d="M4.88 0C7.7085 0 10 2.2385 10 5C10 7.7615 7.708 10 4.88 10C3.2845 10 1.809 9.2815 0.845 8.077C0.817977 8.04336 0.797991 8.00463 0.786229 7.96311C0.774468 7.9216 0.771171 7.87814 0.776535 7.83532C0.781898 7.79251 0.795813 7.7512 0.817452 7.71387C0.839091 7.67654 0.868013 7.64394 0.9025 7.618C0.972824 7.5645 1.06122 7.54047 1.14895 7.55102C1.23668 7.56157 1.31686 7.60585 1.3725 7.6745C1.79421 8.19861 2.32855 8.62103 2.93584 8.91039C3.54313 9.19976 4.2078 9.34864 4.8805 9.346C7.338 9.346 9.3305 7.4 9.3305 5C9.3305 2.6 7.338 0.654 4.8805 0.654C4.2174 0.651451 3.56201 0.796116 2.9616 1.07756C2.36119 1.359 1.83073 1.7702 1.4085 2.2815C1.35198 2.34952 1.27118 2.39284 1.18324 2.40227C1.09531 2.4117 1.00716 2.38649 0.9375 2.332C0.903313 2.30561 0.874782 2.27262 0.853606 2.23498C0.83243 2.19735 0.819041 2.15583 0.814236 2.11292C0.809431 2.07 0.813309 2.02655 0.825637 1.98517C0.837966 1.94378 0.858494 1.90529 0.886 1.872C1.8515 0.697 3.3075 0 4.8805 0H4.88ZM5.1525 3.431L6.506 4.7845C6.637 4.9155 6.6395 5.1245 6.5115 5.2525L5.19 6.575C5.1589 6.60544 5.1221 6.62944 5.08171 6.64564C5.04131 6.66184 4.99812 6.66992 4.95461 6.6694C4.91109 6.66889 4.86811 6.65981 4.82811 6.64266C4.78811 6.62552 4.75188 6.60066 4.7215 6.5695C4.69037 6.53909 4.66555 6.50283 4.64845 6.46282C4.63135 6.4228 4.62231 6.3798 4.62185 6.33629C4.62138 6.29277 4.6295 6.24959 4.64574 6.20922C4.66199 6.16885 4.68603 6.13207 4.7165 6.101L5.49 5.327L0.335 5.3275C0.29149 5.32803 0.248303 5.31997 0.207909 5.30379C0.167516 5.28761 0.130709 5.26363 0.0995939 5.23321C0.0684791 5.20279 0.0436672 5.16654 0.0265778 5.12652C0.00948841 5.0865 0.000456903 5.04351 0 5C0 4.8195 0.15 4.673 0.335 4.673H5.469L4.69 3.8935C4.65887 3.86309 4.63405 3.82683 4.61695 3.78682C4.59985 3.7468 4.59081 3.7038 4.59035 3.66029C4.58988 3.61677 4.598 3.57359 4.61424 3.53322C4.63049 3.49285 4.65453 3.45607 4.685 3.425C4.74777 3.36383 4.83225 3.33006 4.91989 3.33109C5.00753 3.33213 5.09118 3.36787 5.1525 3.4305V3.431Z" fill="white"/>
</svg>
