<svg width="10" height="10" fill="none" xmlns="http://www.w3.org/2000/svg"><path d="M4.88 0C7.709 0 10 2.239 10 5s-2.292 5-5.12 5A5.155 5.155 0 01.845 8.077a.322.322 0 01.057-.459.34.34 0 01.47.056A4.48 4.48 0 004.88 9.347C7.338 9.346 9.33 7.4 9.33 5 9.33 2.6 7.339.654 4.88.654a4.48 4.48 0 00-3.47 1.627.34.34 0 01-.555-.046.322.322 0 01.032-.363A5.155 5.155 0 014.88 0zm.272 3.431l1.354 1.354a.33.33 0 01.005.468L5.19 6.575a.33.33 0 01-.469-.006.331.331 0 01-.005-.468l.774-.774H.335A.331.331 0 010 5c0-.18.15-.327.335-.327h5.134l-.779-.78a.331.331 0 01-.005-.468.331.331 0 01.468.006z" fill="#fff"/></svg>