<svg width="421" height="142" fill="none" xmlns="http://www.w3.org/2000/svg"><path d="M.172 66V1.273H28.11c4.804 0 9.007.874 12.61 2.623 3.603 1.749 6.406 4.267 8.407 7.554 2.002 3.287 3.003 7.227 3.003 11.82 0 4.635-1.033 8.544-3.098 11.725-2.043 3.182-4.92 5.584-8.628 7.206-3.687 1.623-7.996 2.434-12.926 2.434H10.79V30.982h13.15c2.065 0 3.824-.253 5.278-.759 1.475-.527 2.602-1.359 3.382-2.497.8-1.138 1.2-2.623 1.2-4.456 0-1.854-.4-3.36-1.2-4.52-.78-1.18-1.907-2.043-3.382-2.591-1.454-.57-3.213-.854-5.278-.854h-6.195V66H.172zm37.926-29.709L54.28 66H35.19L19.388 36.291h18.71zM97.927 1.273h17.572v41.466c0 4.93-1.18 9.197-3.54 12.8-2.339 3.582-5.604 6.352-9.797 8.312-4.193 1.938-9.06 2.907-14.602 2.907-5.584 0-10.472-.969-14.665-2.907-4.193-1.96-7.459-4.73-9.797-8.312-2.318-3.603-3.477-7.87-3.477-12.8V1.273h17.572v39.949c0 2.001.443 3.792 1.328 5.372a9.577 9.577 0 003.666 3.667c1.58.885 3.371 1.327 5.373 1.327 2.023 0 3.814-.442 5.373-1.327a9.577 9.577 0 003.666-3.667c.885-1.58 1.328-3.37 1.328-5.372V1.272zM158.743 21.5c-.169-2.107-.959-3.75-2.371-4.93-1.39-1.18-3.508-1.77-6.352-1.77-1.812 0-3.298.22-4.457.663-1.137.422-1.98 1.001-2.528 1.739a4.294 4.294 0 00-.853 2.528c-.043.78.094 1.486.41 2.118.338.61.864 1.169 1.581 1.675.716.484 1.633.927 2.749 1.327 1.117.4 2.444.759 3.983 1.075l5.309 1.137c3.582.759 6.648 1.76 9.197 3.003 2.55 1.243 4.636 2.707 6.258 4.393 1.623 1.665 2.813 3.54 3.572 5.626.779 2.086 1.179 4.361 1.2 6.826-.021 4.257-1.085 7.86-3.192 10.81s-5.12 5.193-9.039 6.731c-3.898 1.539-8.586 2.308-14.064 2.308-5.626 0-10.535-.833-14.728-2.497-4.172-1.665-7.417-4.225-9.734-7.68-2.297-3.477-3.456-7.923-3.477-13.338h16.688c.105 1.98.6 3.645 1.485 4.994.885 1.348 2.128 2.37 3.729 3.066 1.623.695 3.551 1.043 5.784 1.043 1.875 0 3.445-.232 4.709-.696 1.265-.463 2.223-1.106 2.876-1.928a4.546 4.546 0 001.012-2.813 3.995 3.995 0 00-.98-2.591c-.611-.759-1.622-1.433-3.034-2.023-1.412-.61-3.319-1.18-5.721-1.706l-6.447-1.391c-5.731-1.243-10.251-3.319-13.559-6.226-3.287-2.93-4.919-6.922-4.898-11.979-.021-4.108 1.074-7.7 3.287-10.777 2.233-3.097 5.32-5.51 9.26-7.238C140.359 1.252 144.9.388 150.02.388c5.225 0 9.745.874 13.558 2.623 3.814 1.749 6.753 4.214 8.818 7.396 2.086 3.16 3.139 6.858 3.161 11.093h-16.814zM.172 141V76.273h17.572v50.568h26.17V141H.171zM111.2 108.636c0 7.206-1.402 13.285-4.204 18.237-2.802 4.93-6.584 8.67-11.346 11.219-4.762 2.529-10.072 3.793-15.93 3.793-5.899 0-11.23-1.275-15.991-3.824-4.741-2.571-8.513-6.321-11.315-11.252-2.781-4.951-4.172-11.009-4.172-18.173 0-7.206 1.39-13.274 4.172-18.204 2.802-4.952 6.574-8.692 11.315-11.22 4.762-2.55 10.092-3.824 15.992-3.824 5.857 0 11.167 1.274 15.929 3.824 4.762 2.528 8.544 6.268 11.346 11.22 2.802 4.93 4.204 10.998 4.204 18.204zm-18.078 0c0-3.877-.517-7.142-1.55-9.797-1.01-2.676-2.517-4.699-4.519-6.068-1.98-1.391-4.424-2.086-7.332-2.086-2.908 0-5.362.695-7.364 2.086-1.98 1.37-3.487 3.392-4.52 6.068-1.01 2.655-1.517 5.92-1.517 9.797 0 3.877.506 7.154 1.517 9.83 1.033 2.654 2.54 4.677 4.52 6.068 2.002 1.369 4.456 2.054 7.364 2.054 2.908 0 5.352-.685 7.332-2.054 2.002-1.391 3.508-3.414 4.52-6.068 1.032-2.676 1.549-5.953 1.549-9.83zm68.243-10.998c-.274-1.117-.706-2.097-1.296-2.94a8.071 8.071 0 00-2.212-2.18c-.864-.611-1.876-1.064-3.034-1.36-1.138-.315-2.392-.473-3.761-.473-2.95 0-5.468.706-7.554 2.117-2.065 1.412-3.645 3.445-4.741 6.1-1.074 2.655-1.612 5.857-1.612 9.608 0 3.793.517 7.037 1.549 9.734s2.571 4.762 4.614 6.195c2.044 1.433 4.583 2.149 7.617 2.149 2.676 0 4.899-.39 6.669-1.169 1.791-.78 3.129-1.886 4.014-3.319.885-1.433 1.327-3.118 1.327-5.057l3.034.316h-14.791v-12.515h28.697v8.976c0 5.899-1.253 10.946-3.761 15.138-2.486 4.172-5.92 7.375-10.303 9.608-4.361 2.213-9.365 3.319-15.012 3.319-6.3 0-11.831-1.338-16.593-4.014-4.762-2.676-8.481-6.489-11.157-11.441-2.654-4.951-3.982-10.841-3.982-17.667 0-5.352.811-10.093 2.434-14.223 1.643-4.13 3.919-7.616 6.827-10.46a28.848 28.848 0 0110.082-6.48c3.813-1.475 7.901-2.212 12.262-2.212 3.835 0 7.396.548 10.683 1.643 3.308 1.075 6.226 2.613 8.754 4.615 2.55 1.98 4.604 4.33 6.163 7.047 1.56 2.719 2.508 5.7 2.845 8.945h-17.762zm44.287-21.365V141H188.08V76.273h17.573zm43.22 20.227c-.169-2.107-.959-3.75-2.371-4.93-1.39-1.18-3.508-1.77-6.352-1.77-1.813 0-3.298.22-4.457.663-1.138.422-1.98 1.001-2.528 1.739a4.302 4.302 0 00-.854 2.528c-.042.78.095 1.486.411 2.118.337.61.864 1.169 1.581 1.675.716.484 1.632.927 2.749 1.327 1.117.4 2.444.759 3.982 1.075l5.31 1.137c3.582.759 6.648 1.76 9.197 3.003 2.55 1.243 4.636 2.707 6.258 4.393 1.622 1.665 2.813 3.54 3.571 5.626.78 2.086 1.18 4.361 1.201 6.827-.021 4.256-1.085 7.859-3.192 10.808-2.107 2.95-5.12 5.194-9.039 6.732-3.898 1.538-8.586 2.308-14.064 2.308-5.626 0-10.535-.833-14.728-2.497-4.172-1.665-7.417-4.225-9.734-7.68-2.297-3.477-3.456-7.923-3.477-13.338h16.688c.105 1.981.6 3.645 1.485 4.994.885 1.348 2.128 2.37 3.729 3.066 1.623.695 3.551 1.043 5.784 1.043 1.875 0 3.445-.232 4.709-.696 1.264-.463 2.223-1.106 2.876-1.928a4.548 4.548 0 001.012-2.812 3.994 3.994 0 00-.98-2.592c-.611-.759-1.622-1.433-3.034-2.023-1.412-.611-3.319-1.18-5.721-1.707l-6.447-1.39c-5.731-1.243-10.251-3.319-13.559-6.226-3.287-2.929-4.92-6.922-4.899-11.979-.021-4.108 1.075-7.7 3.287-10.777 2.234-3.097 5.321-5.51 9.261-7.238 3.961-1.727 8.501-2.591 13.622-2.591 5.225 0 9.744.874 13.558 2.623s6.753 4.214 8.818 7.396c2.086 3.16 3.139 6.858 3.16 11.093h-16.813zm22.613-6.068v-14.16h56.257v14.16h-19.469V141h-17.319V90.432h-19.469zm80.443-14.16V141h-17.573V76.273h17.573zm68.757 24.273H402.86c-.127-1.475-.464-2.812-1.012-4.013a9.067 9.067 0 00-2.212-3.098c-.927-.885-2.055-1.559-3.382-2.022-1.327-.485-2.834-.727-4.519-.727-2.95 0-5.447.716-7.491 2.149-2.023 1.433-3.561 3.487-4.614 6.163-1.033 2.676-1.549 5.889-1.549 9.639 0 3.962.527 7.28 1.58 9.956 1.075 2.655 2.624 4.656 4.646 6.005 2.023 1.327 4.457 1.991 7.301 1.991 1.623 0 3.076-.2 4.362-.6 1.285-.422 2.402-1.022 3.35-1.802a9.334 9.334 0 002.307-2.813c.611-1.116 1.022-2.37 1.233-3.761l17.825.127c-.211 2.739-.98 5.531-2.307 8.375-1.328 2.823-3.214 5.436-5.658 7.838-2.423 2.381-5.425 4.298-9.007 5.752-3.582 1.454-7.743 2.181-12.484 2.181-5.942 0-11.273-1.275-15.992-3.824-4.699-2.55-8.418-6.3-11.157-11.252-2.718-4.951-4.077-11.009-4.077-18.173 0-7.206 1.391-13.274 4.172-18.204 2.781-4.952 6.532-8.692 11.251-11.22 4.72-2.55 9.988-3.824 15.803-3.824 4.087 0 7.848.558 11.283 1.675 3.434 1.117 6.447 2.75 9.039 4.899 2.592 2.128 4.677 4.75 6.258 7.87 1.58 3.118 2.539 6.69 2.876 10.713z" fill="#fff"/></svg>