<svg width="468" height="297" fill="none" xmlns="http://www.w3.org/2000/svg"><path d="M467.783 107.513v-.724l-1.145-.542-.705-.31-.672.695-1.176-.411-.41-.258-.907-.419-.442-.078-.383-.883-1.459-1.346-1.308-.985-.902-.48h-.617l-.568.832-.517.93.175.974.794 1.008.408 1.033-.204.881-.879-.031-.586.078-.589.031-.38-.465s-.38-.82-.406-.913a116.13 116.13 0 00-.674-1.718l-.414-1.256-.232-.989s-.119-.682-.147-.775c-.029-.093-.352-.713-.352-.713l-.439-.494s-.258-.666-.323-.76c-.065-.093-.556-1.193-.556-1.193s-.496-.124-.586-.14a115.85 115.85 0 01-1.494-.37l-.674-.837-.38-.604-.568-.672-.029-.822-.775-.604h-.878l-.91-.14-.498-.447-.907-1.193-.44-.559-.731-.57-.674-.326s-1.083-.822-1.054-1.24c.028-.419-1.848-1.951-1.848-1.951h-.793s-1.55-.233-1.636-.258l-2.343-.711-1.612-1.034-2.122-1.418-1.584-1.008-1.258-.775-.935-.062h-.706l-.881-.093-.992-.155-1.261-.052-2.067.047-1.23-.644-1.436-.728-1.698-1.33-1.034-.668h-2.808l-.558.776-.517.666s.147.912.147 1.067c0 .156.029 1.365.029 1.365s.969.896 1.033 1.005c.219.433.413.879.584 1.333 0 .109-.439 1.873-.439 1.873l-.703.602c-.24.345-.505.671-.793.977-.116.031-1.375.744-1.375.744l-2.168.14s-.702-.062-.819-.17c-.116-.11-.997-1.163-.997-1.163l-.879-1.595s-.963-1.377-.821-1.625c.142-.248-.29-2.307-.29-2.416 0-.108-.382-1.07-.382-1.07l-1.465-.447-1.318.416-.703.465-.258.9-.408 1.19-.998.518-.997-.636-.847-.687-.595-.2-.413-.216-.584-.217-.811-.341-.732-.078h-1.17l-.793.124-.822.217-1.258.078-1.613-.59-.612-.201-.85.419-.703.217-.47.434-.173 1.051-.326.155-.615-.062-.377.186-1.349-.713-1.056-.71-.876-.388-.517-.108-.147-.62-.029-1.052.091-1.07.173-.806.206-.788-.175-.961.116-.618.059-.589-.09-1.145-.419-.58-.558-.295-.498-.517-.321-.357h-.94l-.582.109-1.23.046-.645-.516-1.347.012-1.55-.258-1.408-.356h-2.284s-1.171.061-1.292.077l-.941.109-1.23-.202-.702.093-1.055-.17h-.413l-.819.325-.672.349-.672.137s-.612-.062-.702-.047c-.091.016-1.034.093-1.114.093-.08 0-1.695-.516-1.695-.516l-.881-.357.031-.853-.235-.79-.259-.866 1.403-.806.292-.326-.408-1.144-.729-.571a2.163 2.163 0 00-.498-.202h-1.114l-.793.233-1.55-.419h-.91l-.674-.648-.437-.9-.483-.79.581-1.176.615-.124.589-.648h.378l.677-.962-.205-.516-.178-.465h-.615l-1.113-.479-1.579-.48-1.261-.078-.809.264-.85.093-1.176-.062-1.374-.31-.672-.517-1.204.109-1.809-.233-.731-.45-1.057-.958-1.144-.806-.933-.326-.91.17-1.436.295-1.638.388-1.057.155-.775-.667-.054-.775-.411-.015-.794-.168-.498-.031-.499.015-.32.633-.259.729-.057.896-.555.59-.258.258-.437.108-.499.078-.705.232.116 1.006-.499 1.193-.232.912-.147 1.256-.732.186-.056.85-.323.667-.468 1.033-.561.835-.204.62-1.199 1.13-.907.516-.909-.14-.91-.17-.79-.078-.437-.168-.558-.34-.235-.259-.499-.574-.615-.558-.736-.279-.905-.323-.878.37-1.377-.295-1.473-.103-.938.434-.85.59-1.55-.404-.499-.292-.235-.258-.517-1.13-.32-.436-.822-.48-.995-.65-.995.373-.323.586-.614 1.396-.385 1.594-.062.496.441.775.176.59.354 1.423-.119.517-.088.573a3.777 3.777 0 01-.292.667c-.147.155-.615.617-.615.617l-.674.466-1.729.465-1.139-.517-1.085-.496-1.204-.649-.321-.76-.47-.573-.553-.434-.258-1.067-.468-1.532-.589-1.55-.553-1.207-.204-.481-.119-1.703.119-1.051.496-.698.351-.517.967-.666.498-.742.349-.465.326-.217.173-.465.031-.667-.258-.4.087-.45.179-.76-.179-.927v-1.008l.23-.83-.121-.542-.517-.76-.468-.85-.671-.294-.352-.17h-1.292l-1.609.371-.615-.372-.646-.666-.411-.093-1.199-.259-1.033-.617-.468-.341-.517-.744-.32-.342-.558-.278-.701.258-.731.17-.881-.201-.878-.233-.76-.517-.677-.17-.775-.17-.352-.078-.775.258-.933 1.005-.258 1.318.289.974.295.31.059 1.006v.945l.174.62-.409.742-.498.45-.819.356-.969.258-.993-.155-1.173-.201-1.033-.016-1.432-.03-2.067-.26-1.808-.278-1.321-.124-.878-.093-.584-.742-.558-1.033-.38-.897-.45-1.08-.516-.574-1.961-.912-1.14-.374-1.258-.233-1.905.202-1.55-.259-1.292-.03-.516.604-.499.698-.672 1.377-.38.418-1.113.155-1.086-.45-.881-.371-.465-.517-.517-1.13-.351-.945v-2.26l-.057-.603-.529-1.162-.646-.093h-1.695l-.383.604-.38 1.207-.969.992-.382.698-.044.84-.294 1.1-.817.804-.909.372-.998.868-1.201.419-1.434.384-.775.259-.587.062-1.111.977-1.057.434-1.377.648-.7.744-1.876.85-1.085.698-1.292.775-1.173-.837-.411-.664-.059-.76.204-.65.382-.45.32-.186.559-.168.586-.419.674-.605.497-.418.733-.45.558-.385.641-.542.375-.432.204-.418s.116-.218.176-.372c.04-.277.098-.55.173-.82l.294-.883s.517-.047.644-.047h.586l.791-.819s.235-.496.382-.542c.148-.047.732-.14.732-.14l.963-.574.259-.912.966-.108.411-.822v-.729l.517-.896.498-.558.995-.517.907-.431.969-.559.7-.516.615-.517.589-.258.703-.959.553-.744.238-.868.47-.618.434-.14.47-.604.323-.48.411-.634.672-.589.775-.465.351-.496.323-.416.468-.419.499-.372.116-.124.258-.45.517-.865.437-.775.209-.713v-.775l-.209-.729-.173-.775-.117-.617-.235-1.034.088-.82-.031-1.208.178-1.176-.413-.868-.558-.517-.584-.664-.235-.744-.775-.729-.675-.54-.558-.93-.672-.76-.441-.54-.176-.34-.669-.517-.912-.884-1.083.077-.997-.077-.776-.078-.909.259-1.034-.31-.379-.168h-1.034l-.517-.17-.558.756-.759.698-.59.465-.493.202-.147.648-.938.434-.468.419-.853.03-.932-.015-.646-1.147.323-.742.64-.542.59-.79.436-1.021.207-.682.057-.466-.029-.555-.056-.682-.161-.651-.294-.478-.85-.202-1.109.587-.803.351-.646.744-.879.078-1.374-.17-1.613-.171-.643-.683.116-.927.29-.775v-.543l.878-.201h1.468l.382-.517.383-.605.17-.496-.232-.834.105-.843-.819-.155-.775-.34h-.558l-.69-.58h-.517l-.552.14-.941.015-.437-.155-.354.496-.498-.062-.409-.14-.118.559-.06.31-.641-.093-.646.031-.615.217-.028.835.028.34-.645.388-.468.48-.383 1.293-.643.356-.468.17-.116.792v.53c0 .123-.204.294-.204.294l-.909.258-.383.047-.232.516.175.652.173.664.383.93.147.85-.351.697-.995.435.173.868-.935.214-.517.155-.53-.447-.204-.31-.116-.65h-.625l-.559.03-.584.837-.147.82-.147.712-.028 1.13.441.65 1.049.388.677.574.204.835-.498.65-1.052.156s-.909-.341-1.033-.404c-.124-.062-.468-.294-.468-.294l-.793-.82h-1.08s-.499.308-.618.417c-.119.108-.517.806-.517.806a4.03 4.03 0 00-.677.558c-.025.124-.555.419-.555.419l-.674-.605-.964.28-.352.294.176.664-.059.573s-.615.093-.644.326c-.028.233-.646.186-.646.186l-.382.062-.646-.047-.434-.516-.558.108-.235-.713-.321-.245-.558-.204-.32-.23-.775-.259-.76.496-.584.246-.295.14-.793-.342-.646-.214-.232.015-.641.029-.38.516-.207.776-.702.294-.295.093.059.403-.359.74-.733.046-.732.14-.555-.187-.618.155h-.351l-.233.543-.62.899-.641.258-.938.14-.79-.016-.204-.015-.517.48-.672.62-.173.812v.419l-.612-.093-.259.372-.062.465-.085.434-.147.517-.292.186h-.615l-.589.403-.907.516-.057.806-.674.85-.561-.483-.468-.775-.708-.258-.553.186-.147.325.173.695-.349.807-.232.62-.148.517-1.033.294-.315.432-.06.387-.351.419-.383.325-.408-.108-.377.323-.326.124.326.698.904.077.995-.078.853.517.175.372.06.664-.326.517-.555.14-.558.124-.936-.233-.643.59.171.65.775.788.615.342.762.077.589.667.147.325.057.726-.413.14-.905-.341-.736.403-.116.372-.352.356a.825.825 0 01-.147.388 4.265 4.265 0 01-.775.385l-.352.517-.674.517a5.286 5.286 0 01-.703 0c-.09-.032-.878-.202-.878-.202l-1.034.434-1.113.109-1.902.108-.762-.14-.998.373-1.134.356-1.142.233h-.819l-.793.65-.964.482h-1.057l-.615-.31-.258.464-.204.726.408.683.176.868-.117.85a4.681 4.681 0 01-.258.698c-.116.046-.32.62-.32.62l.32.974.793.713.29 1.033.147 1.292.499.85.467.357.408.186.499.517.646.682.499.106.323-.016.351.605.323.496.556.48.555.466.879.323.705.589.499.899.434.866.734.666.429.721.085.202.47 1.033.258 1.194-.529.819-1.034.744-.584.667v1.253l.23 1.253.442 1.034.382.465.468.617.323.853-.09 1.207-.496.883-1.117.574-.581.834-1.496.838-1.403.186-1.057-.869-.175-.416.147-1.1.028-.651-.057-1.13-.204-1.315.086-1.209.258-1.292.38-1.478-.06-1.237-.144-.76.516-.574.993-.258.909-.496.119-.574-.168-.664-.47-.648-.85.015-1.14.202-1.113-.259-.646-.201-.732-.543-.788-.589-1-.295-.467-.71-.646-1.034-.553-.294-.259-1.191-.178-.259-.765-.483-1.139-.077-.706.232-.379-.62-.437-.4-.561-.218-.615.259-.615.385-.41.232-.117.481-.204.517.437.558.517.85.705.822-.499.775-.442.385h-.819l-.555.14-.147.356-.205.279-.645.046-.468-.093-.383-.258-.232-.636-.352-.99-.819-1.116-.47.078-.085.217-.326.59-.088.604-.206.517.294.385.148.744.586.697.424.46.876.155.85.202h.793l.762.542.845.698.556.82.354.433.323.853s.558.338.584.465l.516.928.148.465.028 1.082-.176.698-1.524.077-.868-.183-.992-.372c-.27-.14-.529-.3-.776-.478-.116-.109-.847-.9-.847-.9l-.85-.402-.496-.372-.806-.577-.941-.648-.555-.45-.91-1.098-.775-.76-.323-.852.235-1.16s.031-.775.057-1.21a7.546 7.546 0 01.059-1.051c0-.093.031-1.16.031-1.16l.259-.9.204-.516.584-.928.232-.806.119-.76-.47-.31.062-1.206-.408-.915-.618-.341-.79-.06-.556.187-.325.369-.38.403c.14.27.258.55.354.837 0 .109-.179 1.207-.031 1.207.088 0-.148.806-.207.915-.059.108-.351.741-.351.741s-.148.93-.174 1.034c.053.273.14.538.259.79l-.178.835-.323.636-.375.062-.238.465-.62.45-.145.123a1.08 1.08 0 01-.258.186 2.727 2.727 0 00-.561.357s.062.403.088.697c.026.295.091.574.091.742v.517l-.096.736c.027.247.037.496.031.744-.031.122.295.71.295.71.197.223.382.456.555.698.088.124.643 1.034.705 1.16l.517 1.055-.201.865.147 1.117.026.927-.114 1.054-.028 1.086-.587 1.005-.147 1.268v.884l.147.434.088.866.028 1.808s-.028.882-.028 1.005c0 .124.147.93.147 1.034 0 .103.38.82.352.912-.088.078.671.744.671.744h1.114l1.155-.34.499-.574.734-.556s.702-.124.775-.155c.072-.031.912-.18.912-.18s.85.139.969.185l1.227.478s.879.496.995.605c.116.108 1 .992 1 .992s.847.68.876.85c.028.17.586.961.586.961l.53 1.409.085 1.209-.085.788-.53.914-.411 1.034-.32.775s-.09.667-.09.775c.158.359.345.704.558 1.034l.615.744.235 1.362v1.007l-.088 1.034-.207.517-.734.217-.992-.062s-.646-.419-.775-.517c-.129-.098-.439-.589-.439-.589l-.822-1.809-.292-1.033v-1.814l-.116-1.907-.031-1.114v-1.085l-.558-.928-.638-.837-.882-.387-.777-.106-.822.137-.904.744-.558 1.517-.173 1.736s.085 1.346 0 1.362c-.148.046.173 1.16.173 1.16l-.042 1.302s-.382 1.424-.351 1.579c.031.155-.47 1.671-.47 1.671l-.775.543-1.05.543-.713.71-.79.31-.352 1.333-.408.959-.499 1.116-.728 1.362s-.326.496-.471.543c-.144.046-1.465.573-1.465.573l-1.229-.015s-.879-.109-.995-.109c-.116 0-1.465.062-1.465.062l-.76-.186a3.168 3.168 0 00-.646-.372 2.158 2.158 0 00-.499.202l-.878-.342a3.1 3.1 0 01-.442-.713 4.348 4.348 0 00-.204-.679 2.828 2.828 0 01-.119-.791c0-.108-.085-1.008-.085-1.129.118-.368.254-.731.408-1.085l.907-.401.646-.325.615.542s.581.915.698 1.034c.116.119.677.517.775.555.301.049.605.08.909.093l.644-.664.47-.356.028-.806-.147-.974s.088-.915.119-1.086c.031-.17.612-.974.729-1.113.123-.162.232-.335.325-.517.173-.258.468-.822.517-.93.139-.348.305-.684.499-1.005.144-.186.555-.806.731-1.055.175-.248.617-.803.617-.803l.233-1.52.054-.927s-.258-.093-.17-.543a4.86 4.86 0 00.056-.713 3.682 3.682 0 00-.144-.99c-.148-.258-.442-.837-.499-.945-.057-.109-.38-.602-.38-.602l-.793-.636a10.098 10.098 0 01-.615-.806c-.059-.077-.646-.834-.499-1.206.148-.373.352-1.843.352-1.843s-.148-1.333-.117-1.426c.031-.093.057-1.098.057-1.098l.207-.713.116-1.238s.088-1.395.117-1.566c.028-.17-.117-1.33-.117-1.33l.259-1.099.413-1.457.496-1.098.06-1.21-.119-1.02-.38-1.033-.47-.881a86.513 86.513 0 00-.481-.835l-.442-.651-.147-1.034-.171-1.085.055-1.361s.762-.869.909-1.101c.147-.233.644-1.315.644-1.315s.178-1.114.235-1.377a8.93 8.93 0 00-.049-1.339l.235-1.594-.401-.731-.85-.881-.646-.62-.641-.435-.325-.155-1.14.047-1.204-.109-.584-.23-.674-.232-1.034.447-.906.517-.613.465-.206.96-.259 1.034v.605s-.289.31-.38.419c-.09.108-.734.664-.734.775 0 .11-.351.65-.351.76 0 .108-.615.449-.615.604 0 .155-.499.571-.499.571l-.173.667-.403.974s.057.992.057 1.116c0 .124-.147 1.13-.147 1.13l-.615.728a4.273 4.273 0 01-.674.558l-.06.31-.351.517-.468.516-.499.652s-.204.516-.258.62c-.17.318-.356.628-.558.927l.382 1.256s.346.82.408 1.005c.063.186.701 1.085.82 1.116.118.031.705 1.052.705 1.052l.32 1.132.091.741s-.207.713-.295.729c-.088.015-.705.34-.793.517-.088.175-.39.739-.39.739a5.548 5.548 0 00-.259.806c0 .093.176.65.207.76a5.56 5.56 0 01-.062.617c0 .155-.116 1.24-.116 1.24l.997.775.675.31.821.698.579.819.736.742.556.744.705 1.19.437.745.442 1.238.468 1.147.144.294-.116.954-.439 1.033-.38.775-.881.435-1.054.155c-.06.015-1.083.108-1.083.108l-.775-.232-.646-.372-.574-.869-.615-.981-.026-1.13-.935-.387-1.809-.667-.731-.803-1.142-1.163-1.082-1.005-.587-.79-.442-.28-.902-.695-.896-.527-.879-.517-.852-.542-1.052-.093-1.093-.181-1.083-.202-1.033-.183-.643-.047-.571.375-.468.29-.468.258-.612.485-.383.14-.206.589.258.788.3.93.816.633.383.993v.713l-.235.617-1.049.282-.621.217-.73.3c-.089.03-.5.201-.5.201l-.35.357s-.469.372-.383.45c.085.077 0 .756 0 .756l-.204.59-.466.775s-.322.155-.441.23c-.324.126-.657.23-.995.31l-.91.03-.733.016-.409-.615-.377-.79-.09-.807a7.368 7.368 0 00-.235-.943l-.584-.418-.646-.4-1.114-.125-.847-.03s-.517.31-.675.402c-.257.14-.502.301-.734.48-.232.187-.966.99-1.227.913-.26-.078-1.32.666-1.32.666l-1.465.156s-.352 0-.584.015a6.345 6.345 0 00-.822.124s-.499.543-.615.698c-.175.155-.32.617-.44.695-.294.113-.598.2-.909.258l-.581-.015-.442-.465-.41-.572-.324-.666-1.056-.388a8.318 8.318 0 00-.936-.03c-.088.03-1.55.371-1.55.371l-.64.698-.882.618-1.318.17-1.054.372-.734.45-1.462.713s-.235.517-.258.617a7.365 7.365 0 01-.703.853l-.499.517a4.25 4.25 0 01-.677.586c-.233.14-1.403.806-1.403.806l-.822.605s-.467.434-.7.68a3.844 3.844 0 00-.53.62l-.323.899a2.761 2.761 0 00-.467.587 2.78 2.78 0 01-.411.728c-.24.19-.495.363-.76.517 0 0-.41.834-.558 1.083a3.385 3.385 0 01-.73.697c-.12.109-1.055.822-1.055.822l-1.233.077-.826-.958-1.055-1.222-.91-.776-.73-.844-.468-.742s.233-.946.294-1.147a7.773 7.773 0 000-.775l.233-1.194 1.377-.897 1.346-.93.468-.977-.116-.85-.672-.775-.822-.896-.436-.822-.53-.59h-.938l-.938-.516-.964-.48H52.37s-.176.516-.258.741c-.083.225-.179.9-.179.9l.587.516.615 1.238.76.96v1.347l-.556.946c-.007.39-.056.78-.147 1.16-.088.258 0 1.209 0 1.209s-.148.804-.148.928.259 1.361.259 1.361l.677.853.144 1.271.06.85.175.326s-.028.573-.028.853c0 .279.054 1.005.054 1.005a8.29 8.29 0 00-.258.852c0 .124-.06 1.005-.06 1.005s.148.683.176.838c.029.155-.028 1.454-.028 1.454v.517s-.675.171-.879.217c-.204.047-1.439-.326-1.439-.326l-.819-1.144-.845-1.101-.971-1.008s-.468-.602-.584-.602c-.117 0-.938.186-.938.186l-1.292.062-.207.605s-.586.664-.586.775c0 .111-.117.605-.117.729s-.47.664-.47.664l-.904.17s-.675.683-.675.807a.953.953 0 01-.258.516c-.147.202-.822.943-.822.943l-.258.698.03.729.26.09.529.93.437.667.441 1.067s.292.837.292.946c0 .108-.204 1.16-.204 1.16l-.997.698-1.612.31-1.034-.047-1.114-.574-1.408-.387-1.315-1.292-.589-.605-.819-.555-.731-.279-.995.093-.91.093-.31.47.32.946.91.635.995.217 1.524.432.879.419.408 1.054.21 1.129-.776.697-1.033 1.034-.793.326-1.292.108-1.525-.574-1.61-.695-1.759-.775-1.398-.948-1.18-1.679-.706-1.579-.674-2.726.617-1.858s.29-1.145.496-1.292c.207-.147.517-1.033.517-1.033l.057-.68-.44-.356-.852-.667-.615-.217-.837-.61-.881-.775-.879-1.163-1.31-.739-1.26-.806-1.262-.806-.53-.455-.317-1.178v-1.245l.76-.31 1.292.186 1.232.604 1.465.463 1.64.589 2.43 1.408 1.669.977 1.808.604 1.38-.217s1.111.217 1.292.259l2.52.571 1.847-.31 1.343.31s1.261.434 1.377.48c.117.047 1.644.605 1.732.62a13.67 13.67 0 001.372-.452s.498-.558.586-.635c.088-.078.556-.398.556-.398l.53-1.067.294-1.086-.442-1.129-.468-1.175-.382-1.411-.38-2.044-.734-1.672-.584-.945-.968-.202-1.114-.431-1.377-.807-2.137-1.467-1.318-1.734-1.61-1.612-2.372-1.269-1.32-.977-1.232-.31-.876-.199-1.582-.359-2.96-.741-1.784-.55-2.139-1.595-1.346-.86-2.67-.905-2.43-.356-2.633-.912-.675-1.52.085-.912c-1.317.093-2.583.155-3.896.308-1.636.186-3.359.465-4.886 1.1.198.275.411.54.638.791 1.44 1.377 3.36 1.95 4.69 3.437.617.7 1.167 1.457 1.643 2.26.494.822 1.08 1.61 1.664 2.416a5.525 5.525 0 011.119 2.664c.116 1.067-.062 2.137-.147 3.189-.235 1.842-.473 3.855.516 5.483.967 1.501 2.228 2.816 2.52 4.674.38 2.276-.259 4.49-.703 6.718a37.02 37.02 0 00-.53 7.216c0 1.034 0 2.091.442 3.067a11.38 11.38 0 001.26 2.067c.544.717.996 1.498 1.347 2.326.374.965.62 1.975.731 3.005.204 2.152.031 4.366-.232 6.519-.148 1.162-.352 2.325-.499 3.483a33.489 33.489 0 00-.147 3.47c.028 1.61-.06 3.25-.848 4.615l.235.369-.824 1.271-1.434.881-1.61-.059-4.364 1.935c.85 1.426 1.55 2.928 1.67 4.63.059.556.09 1.145.173 1.703.05.531.069 1.064.056 1.597-.056.953-.55 1.84-.516 2.829a.447.447 0 01-.176.359 8.535 8.535 0 011.375 1.608c.558.868 1.056 2.067.997 3.175.705.217 1.465.45 2.067.912.602.463.969 1.15 1.55 1.519.825.543 1.845.189 2.698.716.852.527 1.14 1.465 1.318 2.411.178.945.41 1.783 1.199 2.369a6.548 6.548 0 011.966 2.047c.876 1.578.876 3.498-.473 4.767a13.02 13.02 0 00-1.349 1.377c-.152.19-.242.423-.258.667.03.235.258.387.442.483.615-.171 1.26.044 1.907.292.32.126.775.372 1.136.258a.89.89 0 00.383-.258c.06-.06.175-.168.175-.259v-.338c.179-.791 1.318-1.116 1.964-1.225.587-.108 1.202-.077 1.61.419.731.93.354 2.49.207 3.545-.117.542-.323 1.398-.06 1.904.323.667 1.145.258 1.64.093 1.61-.432 1.67 2.031 2.288 3.005.966 1.55 3.19.096 4.51.08.965 0 1.696.491 2.399 1.189.246.27.534.5.852.679.436.178.911.231 1.375.155.997-.059 2.02-.245 3.018.142a3.65 3.65 0 011.809 1.473c.733 1.362.258 3.114-.794 4.163-.995.989-2.34 1.47-3.602 1.904-1.033.372-2.136.731-3.043 1.411h.292l-.97.602-1.588 1.857-.59 1.53-.966.543-.997 1.134-2.137 1.189-.176 1.162 1.318.742.879.173 1.377 1.145L36.17 215a1.902 1.902 0 011.522-.517c.918.031 1.83.15 2.726.357.584.157 1.142.31 1.7.403.558.093 1.054.157 1.581.258a6.938 6.938 0 012.902 1.098c.819.558 1.638 1.442 2.604 1.535.91.059 1.79-.258 2.636-.372.907-.124 2.023-.189 2.87.258.434.234.806.568 1.086.974.292.31.615.623.938.977a4.652 4.652 0 011.346 2.196c0 .065.028.124 0 .189.226.124.433.279.615.462.467.404.85.853 1.55.853.7 0 1.318-.385 1.933-.757a6.073 6.073 0 011.465-.806c-.292-.233-.615-.419-.907-.667-.646-.462-1.352-.943-1.848-1.656-.408-.605-.555-1.395-.615-2.137-.028-.85-.056-1.64-.671-2.356-.53-.571-1.352-.881-1.732-1.55-.467-.851-.32-1.889.029-2.742.354-.919.94-1.73 1.703-2.354a10.537 10.537 0 012.663-1.504c.323-.183.675-.335 1.034-.491-.03 0-.03 0-.057-.064a7.553 7.553 0 01-.53-1.984c-.116-.711-.147-1.437-.467-2.039-.618-1.194-1.992-1.631-3.1-2.202-.939-.48-1.902-1.113-2.517-1.994-.618-.84-.706-1.861-.502-2.868.148-.695.502-1.269.853-1.889.351-.682.292-1.222.32-1.979.031-.871.326-2.067 1.17-2.344.675-.199 1.877-.32 2.228.468.178.434.235.635.76.741.413.109.555-.279.734-.617a9.8 9.8 0 016.237-5.064c2.669-.757 5.713-.711 8.175.648 1.432.762 2.692 1.941 4.248 2.496 1.403.517 2.636.605 4.01-.139 1.085-.621 2.23-1.38 3.514-1.362 1.145.015 2.202.447 3.225.928 1.033.516 2.08 1.147 3.22 1.361 1.26.235 2.668-.214 3.358-1.439.295-.517.587-1.765-.258-1.982-.558-.124-1.114-.124-1.525-.555-.323-.31-.85-.763-.762-1.305.09-.354.44-.543.587-.85.586-1.098-.497-2.646.79-3.47.558-.403 1.202-.45 1.67-1.08.32-.432.203-.775-.032-1.21-.436-.775-1.033-1.904-.41-2.757.589-.806 1.55-.896 2.464-.834 1.052.062 2.109.325 3.191.403 1.641.109 3.341-.235 4.892-.682 3.31-.946 6.444-2.478 9.606-3.734 1.114-.434 2.171-.961 3.315-1.315.964-.307 2.163-.555 3.135-.155a3.602 3.602 0 012.015 2.617c.147.763.062 1.595.238 2.339.175.679.819 1.07 1.403 1.292a7.197 7.197 0 001.963.403c.615.077 1.202-.062 1.843-.155.586-.096 1.317-.259 1.847.093.51.371.948.833 1.292 1.361.674.897 1.7 1.292 2.641.603.728-.543 1.227-1.365 1.873-2.013.555-.618 1.261-1.194 2.137-1.145 1.17.062 1.7.868 1.904 2.01.116.7.233 1.411.822 1.907.496.403 1.051.465 1.666.543 1.116.17 2.114.638 2.726 1.671 1.083 1.889.556 4.305 1.465 6.253.212.508.572.941 1.034 1.241.465.279 1.111.62 1.666.403.471-.155.762-.558 1.145-.869a2.49 2.49 0 011.374-.62c1.086-.155 1.613.776 2.375 1.442.207.202.442.636.775.543a6.035 6.035 0 001.612-.667c.882-.517 2.256-1.225 3.101-.17.674.917.762 2.369 1.641 3.144 1.111.99 3.165.974 4.568.866.791-.047 2.607-.403 3.075.591.323.618.088 1.142 0 1.778-.06.494.147.589.498.667.646.139 1.318.17 1.936.31.351-.574.759-1.225 1.346-1.52.331-.213.72-.32 1.114-.304.291.028.617.139.937.147 1.905.049 3.078-1.853 4.336-3.034 1.377-1.25 3.072-1.669 4.863-1.777.935-.062 1.842-.075 2.78-.155.705-.06 1.468-.199 2.196-.047.791.155 1.292.837 1.876 1.395.907.835 1.904 1.238 3.046 1.595 1.522.478 3.047 1.253 4.651 1.408.646.064 1.378.064 1.964-.323.618-.468.853-1.349.879-2.14a1.678 1.678 0 00-.352-1.191c-.258-.217-.517-.354-.775-.558a2.023 2.023 0 01-.762-2.015c.38-1.55 2.4-1.964 3.692-2.196 1.933-.329 3.876-.621 5.741.139 2.023.822 3.618 2.367 5.274 3.858.878.816 1.757 1.635 2.871 2.119a7.475 7.475 0 003.281.635 5.394 5.394 0 001.612-.219c.494-.153.964-.339 1.432-.517.821-.339 1.845-.848 2.813-.755.879.091 1.466.742 1.962 1.486.233.41.53.782.878 1.101.468.403.91.387 1.494.356 1.175-.093 1.726.726 2.255 1.685.259.483.615.977 1.202.806.586-.17 1.033-.388 1.607-.403 1.204-.031 2.258.388 3.429.713.909.258 1.906.447 2.816.044 1.902-.819 2.488-3.281 4.186-4.392.819-.543 1.788-.623 2.754-.435 1.199.259 2.225 1.006 3.486.977.731-.015 1.346.078 1.808.54a5.028 5.028 0 011.726-.013c.618.124 1.145.481 1.76.711a4.684 4.684 0 003.018.049c.85-.259 1.757-.667 1.93-1.705.088-.517.031-1.055.088-1.551.057-.476.143-.948.258-1.413a5.87 5.87 0 011.468-2.46c.615-.636 1.403-1.101 1.93-1.809a1.53 1.53 0 00.411-.837.509.509 0 00-.088-.416 2.637 2.637 0 00-.995-.757c-.408-.232-.878-.436-1.318-.731a2.36 2.36 0 01-.909-1.145 1.829 1.829 0 01.207-1.563c.671-1.054 2.02-1.424 3.162-1.674 1.261-.233 2.548-.326 3.809-.465 1.465-.155 2.87-.478 4.364-.434 1.55.031 3.134.372 4.392 1.398a6.809 6.809 0 011.644 2.087c.555.961 1.033 1.951 1.521 2.912a30.46 30.46 0 001.809 2.819 19.433 19.433 0 011.786 2.444c.471.88.826 1.817 1.054 2.788.258.962.442 2 .94 2.822a2.994 2.994 0 001.695 1.39c.741.247 1.509.408 2.287.478 1.315.173 3.046.313 3.809 1.63.408.631.555 1.378.819 2.088.263.711.498 1.225 1.229 1.429 1.757.491 3.191-.979 4.778-1.333a2.256 2.256 0 011.4-.016c.414.122.794.37 1.204.447a1.166 1.166 0 001.083-.258c.305-.254.628-.487.966-.695.618-.344 1.409-.517 1.995-.08.672.467.876 1.317.876 2.124a3.876 3.876 0 01-1.61 3.297c-.938.679-2.02.992-2.958 1.718-1.083.821-1.318 2.067-1.465 3.421-.06.558-.091 1.163-.411 1.661-.411.633-1.034.969-1.669 1.251-1.377.573-2.928.821-4.101 1.858-.555.516-1.054 1.193-.938 2.028.119 1.033.44 1.953-.175 2.863.498.496.775 1.227.997 1.969l.848.483 1.054.741 2.374-1.02s2.052-1.646 2.109-1.706c.057-.059 1.932-1.377 1.932-1.377l2.111-2.387s.703-2.041 1.055-2.137c.351-.096 2.284-2.506 2.284-2.506l.615-2.636 2.583-2.134 1.582-1.873 1.643-2.401 1.054-1.889 1.034-1.935.703-2.385.237-1.147.672-1.55.235-1.269-.586-1.134-.558-.724.47-2.387 1.054-2.506 1.437-1.949-1.086-1.984-.906-1.61-1.788-2.09-1.292-1.07-2.375.106-2.194 2.124-1.346-1.271-1.7-.481-.292-1.979-1.406-.232-.821-2.277 2.227-3.069 1.292-1.61 3.633-3.775 2.961-2.137 3.013-2.819c.09-.08 3.312-3.268 3.312-3.268l.879-.292 1.292-1.535 1.033-.258 2.372.064 4.191.481 1.695-.14 5.072-.405 2.871-1.13 3.25-.896 2.871.403 2.49 2.044-1.348 2.087 2.87.667 2.781-2.041 2.49.754 1.757-.754-.878-3.16-.204-.915 2.196-2.067s1.904-1.997 1.995-2.106l1.963-2.354 1.46-.62 1.527-.943 7.493.215-.728 3.005h2.106l2.02-1.626 1.729-.744 2.782.496.791-2.167v-2.701l1.491-.927 2.067-.31-.351 1.808-.558 2.029s-.615 1.966-.672 2.067c0 .124-.589 1.92-.615 2.044-.026.124-.38.914-.38.914l-1.966-.186-1.843 1.292-1.808 1.034-2.55 2.553-2.285 4.353-.498.602s-.672.992-.731 1.101c-.06.108-.44.682-.44.682l-3.661 3.052-.258 1.529-.964 2.155-.824 1.127-1.23.573-1.228 1.427-.586 1.346.876 2 .235 1.576-.116 1.904-.148 1.01.117 1.998-.409 2.211-.516 1.334.617 2.103.026 1.86-.204 1.253.517 1.008.147 1.457.468 1.39s.436.649.584.667c.147.018 1.056.295 1.056.295l.822-.329.729-.925.85-.976s.821-.912.878-1.008c.057-.096.558-1.292.558-1.292s.411-.958.517-1.126c.106-.168.584-.946.7-1.117.117-.17 1.349-2.041 1.349-2.041l1.375-1.876.589-1.578s2.02-.897 2.168-1.034c.147-.137 1.291-1.116 1.291-1.116l1.233-.23.793-1.116-.031-2.494.031-2.475.116-.698.38-.258.496-.804.794-1.829.731-2.067.088-.31s.031-1.054.031-1.178c0-.124.173-1.734.173-1.734l.207-.517-1.292-.294-1.292-1.269-.732-1.426.559-2.119.204-.667 1.491-.788.516-1.069.967-.931.206-.483.67-1.591c.11-.262.238-.515.382-.76.059-.031 1.641-.651 1.641-.651l1.227-.416 1.323-.047.76-1.147.878-.822 1.085-.695 1.259.326.775.517.759-.45 1.034-1.271 1.173-.124 1.08.884 1.088 1.054 1.964-.259 1.17-.201 1.406.124s1.054.418 1.139.493l1.176.745 1.23-.804.32-.636-.026-1.441c-.019-.517-.01-1.035.026-1.551.059-.108.496-.868.496-.868l.354-.4.145-.791.969-.419 1.085-.741 1.343-.822.998-.418.615-.975.821-1.333.202-.85.941-.899 1.082-.419 1.054-.015s1.406.605 1.582.698c.175.093 2.428-.419 2.428-.419l.646-.853.941-.462.499-.961s1.291-.171 1.4-.171c.108 0 1.119-.139 1.235 0 .483.358.991.679 1.522.961.116.031 2.067-.449 2.067-.449l.235-.574.321-1.362v-1.113l-.38-.54-1.465-1.489-.76-.803s-.822-.682-.646-.884c.176-.201-.028-2.067-.028-2.067l-.292-1.268-.148-.621-.617-.682-.558-1.005-1.491.062-.321-.604.701-1.207.119-.434s.142-.837.173-.961.294-1.005.294-1.005h1.525l1.374.372c.119.044.879.447.998.369.118-.077 1.522-1.176 1.522-1.176l.705-.294 1.051-1.501.499-1.52.147-.912-1.232-2.276-.375-2.033 1.61-.404 2.519.202.468 1.292-.584 1.517.881 1.291 1.346 1.099.995.604 2.325.259 2.282.914 1.057 1.781.411.558.775.077.323-.139 1.033.077.62.372v.711l-.209.434.209.85.732.232.7.853.731.806.734.31 1.057.259.907-.109.731-.775.258-1.209s.088-.804.088-.928.351-1.808.351-1.808l-.087-1.148.294-.604.615-.587.964-.837.734-1.067s.909.431 1.173.385c.263-.047 1.55-.23 1.55-.23l.938-.279.408-.496.209-.517.411-.574.321-.775-.207-.847z" fill="#354E9A"/><path d="M467.799 106.221v-.708l-1.142-.543-.706-.31-.674.698-1.171-.429-.411-.258-.901-.414-.442-.077-.38-.881-1.462-1.349-1.334-.974-.904-.481h-.615l-.548.817-.516.927.178.977.79 1.005.409 1.034-.204.881-.879-.031-.586.077-.587.031-.382-.462s-.378-.822-.406-.915c-.028-.093-.674-1.718-.674-1.718l-.411-1.256-.235-.99s-.117-.682-.148-.775c-.031-.093-.351-.71-.351-.71l-.437-.496s-.258-.667-.325-.76c-.067-.093-.556-1.191-.556-1.191s-.496-.124-.584-.14c-.088-.015-1.496-.372-1.496-.372l-.672-.837-.382-.604-.571-.652-.026-.821-.775-.602h-.881l-.91-.14-.498-.45-.907-1.193-.414-.558-.733-.574-.685-.313s-1.083-.819-1.054-1.237c.028-.419-1.848-1.951-1.848-1.951h-.79s-1.551-.233-1.639-.258l-2.343-.713-1.612-1.034-2.137-1.408-1.584-1.005-1.256-.775-.938-.063h-.692l-.879-.093-.994-.154-1.261-.063-2.067.047-1.259-.659-1.439-.726-1.695-1.333-1.033-.664h-2.809l-.558.775-.53.666s.147.915.147 1.07c0 .155.031 1.362.031 1.362s.967.9 1.034 1.005c.219.434.415.879.586 1.333 0 .109-.441 1.874-.441 1.874l-.703.604c-.24.344-.505.67-.793.974-.117.031-1.375.744-1.375.744l-2.168.14s-.703-.062-.819-.17c-.116-.11-.997-1.163-.997-1.163l-.879-1.594s-.963-1.378-.819-1.626c.145-.248-.292-2.307-.292-2.416 0-.108-.382-1.067-.382-1.067l-1.465-.45-1.318.417-.703.465-.258.899-.408 1.191-.998.517-.994-.636-.822-.68-.584-.2-.411-.218-.586-.217-.822-.341-.731-.078h-1.171l-.79.124-.825.218-1.258.077-1.612-.59-.613-.2-.847.418-.703.217-.473.434-.173 1.052-.325.155-.615-.062-.378.186-1.348-.71-1.055-.714-.876-.387-.516-.109-.148-.62-.031-1.052.091-1.07.173-.803.207-.79-.176-.96.116-.62.06-.588-.088-1.145-.408-.574-.574-.29-.496-.516-.323-.354h-.938l-.584.106-1.23.047-.646-.517-1.346.015-1.55-.258-1.409-.357h-2.286s-1.171.062-1.292.078l-.941.108-1.23-.201-.702.093-1.055-.17h-.41l-.819.325-.675.356-.674.14s-.613-.062-.703-.046a29.51 29.51 0 01-1.114.093c-.08 0-1.695-.517-1.695-.517l-.878-.357.028-.852-.235-.776-.258-.868 1.403-.803.294-.326-.408-1.147-.741-.615a2.126 2.126 0 00-.499-.202h-1.114l-.79.23-1.551-.416h-.909l-.672-.65-.439-.9-.468-.775.581-1.178.615-.124.59-.649h.379l.675-.961-.204-.517-.179-.462h-.615l-1.113-.48-1.579-.482-1.261-.077-.819.279-.85.093-1.173-.062-1.375-.31-.674-.517-1.204.109-1.809-.233-.734-.447-1.056-.961-1.132-.816-.933-.324-.909.169-1.434.294-1.641.388-1.057.155-.77-.682-.054-.776-.411-.015-.793-.17-.499-.032-.496.016-.323.635-.258.726-.057.9-.556.586-.258.259-.439.108-.499.078-.705.232.116 1.008-.496 1.191-.235.915-.148 1.253-.728.186-.057.852-.326.664-.467 1.034-.558.837-.205.618-1.201 1.131-.907.517-.909-.137-.91-.17-.791-.078-.436-.17-.556-.372-.235-.259-.499-.573-.615-.556-.741-.256-.902-.325-.881.372-1.377-.295-1.465-.108-.938.434-.853.591-1.55-.4-.499-.294-.235-.259-.517-1.132-.343-.426-.824-.48-.985-.652-.997.372-.321.59-.615 1.39-.379 1.594-.06.496.439.79.176.587.354 1.426-.116.517-.091.574a3.79 3.79 0 01-.292.666c-.147.155-.615.62-.615.62l-.671.463-1.731.465-1.14-.517-1.085-.493-1.202-.651-.323-.76-.47-.571-.553-.434-.258-1.07-.47-1.532-.587-1.55-.555-1.21-.205-.48-.118-1.703.118-1.051.499-.698.351-.517.967-.666.498-.742.347-.465.325-.217.173-.465.031-.664-.258-.403.085-.45.179-.757-.179-.93v-1.008l.238-.85-.119-.542-.517-.76-.467-.85-.672-.295-.352-.17h-1.291l-1.61.372-.615-.372-.646-.667-.411-.093-1.196-.245-1.034-.62-.467-.342-.517-.744-.323-.338-.558-.28-.7.26-.732.167-.881-.202-.878-.23-.76-.516-.674-.17-.775-.171-.352-.078-.775.259-.933 1.005-.258 1.317.292.974.292.31.062 1.008v.974l.17.62-.408.745-.514.444-.819.357-.966.258-.995-.155-1.173-.202-1.034-.015-1.431-.031-2.052-.258-1.808-.28-1.323-.123-.879-.094-.581-.744-.558-1.02-.383-.9-.467-1.116-.517-.57-1.959-.915-1.116-.373-1.256-.232-1.907.202-1.55-.259-1.292-.03-.517.604-.498.697-.672 1.378-.377.418-1.114.155-1.088-.45-.878-.371-.468-.517-.517-1.132-.351-.946v-2.258l-.057-.604-.517-1.163-.643-.093h-1.698l-.379.604-.383 1.21-.969.99-.382.697-.026.852-.295 1.099-.816.806-.909.37-.998.867-1.201.419-1.434.388-.775.258-.587.06-1.111.976-1.057.434-1.377.649-.7.744-1.876.852-1.083.695-1.292.776-1.173-.835-.426-.677-.057-.76.204-.65.38-.448.323-.186.558-.17.584-.419.677-.604.494-.416.733-.45.558-.387.644-.543.354-.434.204-.419a3.88 3.88 0 00.176-.37 6.4 6.4 0 01.175-.82l.295-.885s.517-.044.641-.044h.586l.793-.821s.233-.496.38-.543c.148-.046.734-.14.734-.14l.964-.573.258-.912.967-.108.41-.822v-.726l.517-.9.496-.558.995-.516.907-.434.969-.559.7-.516.615-.517.589-.245.703-.962.556-.744.235-.865.47-.62.434-.14.473-.605.32-.478.411-.635.672-.59.775-.464.349-.494.323-.418.467-.42.499-.371.116-.124.259-.447.529-.868.44-.775.206-.711v-.775l-.206-.729-.176-.775-.116-.62-.235-1.034.087-.819-.031-1.209.197-1.196-.411-.868-.558-.517-.587-.667-.235-.744-.775-.726-.672-.543-.56-.93-.672-.757-.442-.542-.176-.341-.669-.517-.909-.881-1.086.077-.994-.077-.791-.078-.91.246-1.033-.308-.383-.17h-1.033l-.53-.171-.558.757-.759.698-.587.465-.496.201-.147.652-.938.431-.468.419-.853.03-.932-.015-.646-1.145.325-.744.638-.542.59-.788.436-1.034.21-.68.056-.465-.031-.558-.057-.682-.178-.617-.292-.48-.85-.202-1.111.589-.791.338-.645.744-.879.078-1.375-.17-1.612-.171-.643-.682.119-.928.286-.775v-.543l.881-.199h1.468l.38-.516.382-.605.171-.496-.23-.835.114-.837-.817-.155-.775-.341h-.558L223.294 0h-.53l-.553.14-.938.015-.439-.155-.354.494-.498-.062-.409-.137-.116.555-.062.31-.641-.093-.646.031-.615.217-.028.837.028.339-.646.387-.467.481-.383 1.292-.64.356-.471.171-.116.79v.543c0 .124-.204.292-.204.292l-.91.259-.382.044-.233.516.176.651.176.667.38.928.147.852-.344.675-.992.434.171.868-.933.217-.517.155-.517-.45-.204-.31-.119-.65h-.628l-.558.03-.581.837-.147.822-.148.71-.031 1.132.442.649 1.052.387.674.574.204.837-.498.649-1.052.155s-.909-.341-1.033-.403a7.203 7.203 0 01-.468-.295l-.793-.819h-1.08c-.212.13-.417.269-.615.419-.091.124-.517.803-.517.803a3.92 3.92 0 00-.674.558c-.029.124-.556.419-.556.419l-.677-.605-.964.28-.351.294.176.664-.057.573s-.615.093-.646.326c-.031.233-.646.186-.646.186l-.38.062-.646-.046-.437-.517-.558.108-.232-.71-.323-.259-.558-.201-.321-.233-.775-.258-.76.496-.586.258-.295.14-.79-.341-.646-.217-.235.015-.639.031-.382.517-.207.775-.702.295-.295.093.059.403-.385.754-.733.044-.732.14-.555-.184-.615.153h-.351l-.236.543-.617.899-.643.258-.936.14-.793-.016-.204-.015-.517.477-.672.62-.147.822v.416l-.612-.09-.259.37-.059.465-.088.434-.147.516-.292.186h-.615l-.589.4-.907.518-.057.806-.675.85-.555-.478-.468-.775-.705-.259-.556.186-.147.326.173.698-.349.803-.232.62-.147.517-1.034.292-.323.434-.059.388-.352.418-.382.326-.408-.109-.378.326-.323.124.323.695.905.077.997-.077.853.517.173.372.059.666-.323.517-.555.14-.558.124-.938-.233-.644.59.173.65.763.775.615.341.775.078.589.667.147.325.057.729-.411.137-.907-.341-.736.403-.116.372-.352.356a.825.825 0 01-.147.388 4.2 4.2 0 01-.775.388l-.352.516-.677.517a5.237 5.237 0 01-.702 0c-.091-.03-.879-.201-.879-.201l-1.033.434-1.114.108-1.904.109-.775-.14-.998.372-1.113.372-1.142.23h-.82l-.79.651-.964.481h-1.057l-.617-.31-.259.465-.204.729.408.68.179.867-.119.85a4.803 4.803 0 01-.258.698c-.117.047-.321.62-.321.62l.321.974.793.713.292 1.034.147 1.292.496.852.47.357.409.184.498.516.644.683.498.108.326-.016.351.602.321.497.555.48.556.465.878.326.706.586.498.9.437.868.731.664.424.72.088.202.467 1.034.259 1.193-.517.82-1.033.744-.579.64v1.254l.23 1.255.442 1.034.382.465.468.62.323.85-.088 1.21-.499.88-1.114.574-.583.837-1.494.835-1.406.186-1.054-.879-.173-.418.145-1.101.028-.648-.057-1.132-.201-1.315.088-1.21.258-1.291.352-1.455-.062-1.24-.143-.76.517-.571.995-.258.909-.497.117-.573-.173-.664-.473-.651-.835.03-1.139.202-1.114-.258-.646-.202-.729-.542-.79-.587-1.008-.313-.468-.713-.645-1.033-.553-.295-.259-1.194-.176-.258-.775-.462-1.139-.078-.706.23-.379-.617-.437-.404-.558-.217-.615.259-.618.387-.41.233-.117.478-.204.517.437.558.517.852.705.82-.499.775-.441.387h-.82l-.555.14-.147.354-.181.287-.646.046-.468-.093-.38-.258-.235-.633-.351-.992-.819-1.114-.468.077-.088.217-.325.587-.096.6-.207.516.292.388.148.741.586.698.411.465.876.155.85.202h.793l.775.54.848.697.555.822.354.431.321.853s.558.341.586.465c.029.124.517.928.517.928l.147.465.031 1.085-.178.695-1.524.078-.882-.215-.992-.372c-.265-.14-.52-.3-.762-.478-.119-.109-.85-.9-.85-.9l-.85-.402-.496-.37-.819-.573-.938-.651-.556-.45-.909-1.098-.791-.76-.32-.85.232-1.163s.031-.775.057-1.206a7.01 7.01 0 01.062-1.054c0-.094.029-1.16.029-1.16l.258-.9.204-.517.584-.927.233-.806.118-.757-.467-.31.059-1.21-.403-.914-.615-.341-.793-.062-.556.186-.325.37-.38.402c.14.27.259.55.354.837 0 .109-.178 1.207-.031 1.207.088 0-.147.806-.207.915-.059.108-.351.744-.351.744s-.147.928-.173 1.033c.053.274.14.54.258.791l-.176.835-.325.635-.375.062-.238.465-.609.447-.145.124a1.178 1.178 0 01-.258.186c-.2.095-.388.214-.558.354 0 0 .059.403.085.698.026.295.09.574.09.744v.517l-.095.736c.028.247.038.496.031.745-.031.123.294.71.294.71.198.222.384.455.556.698.09.124.646 1.033.705 1.162.06.13.517 1.052.517 1.052l-.202.868.148 1.114.028.93-.116 1.052-.029 1.085-.586 1.005-.147 1.271v.881l.147.434.088.868.031 1.81s-.031.88-.031 1.004.147.93.147 1.034c0 .103.385.816.356.91-.087.077.672.743.672.743h1.114l1.134-.325.517-.574.731-.555s.703-.124.791-.155c.088-.031.899-.197.899-.197s.848.14.966.186l1.228.48s.878.505.997.626c.119.122 1 .992 1 .992s.845.68.873.85c.029.171.587.962.587.962l.517 1.408.087 1.21-.074.78-.517.911-.411 1.034-.32.775s-.091.667-.091.775c.16.354.346.696.558 1.02l.615.745.235 1.362v1.007l-.088 1.034-.206.517-.731.217-.995-.062s-.646-.419-.775-.517c-.13-.098-.44-.587-.44-.587l-.821-1.808-.292-1.034v-1.8l-.117-1.905-.031-1.116V90.46l-.558-.928-.638-.837-.881-.385-.791-.109-.824.14-.902.741-.56 1.52-.173 1.733s.087 1.347 0 1.362c-.148.047.173 1.163.173 1.163l-.029 1.292s-.382 1.424-.351 1.579c.031.154-.468 1.674-.468 1.674l-.775.54-1.049.542-.736.714-.775.31-.354 1.351-.414.961-.496 1.106-.731 1.362s-.323.496-.47.542c-.148.047-1.465.574-1.465.574l-1.228-.016s-.881-.108-.997-.108c-.116 0-1.465.062-1.465.062l-.76-.186a3.168 3.168 0 00-.646-.372 2.174 2.174 0 00-.498.201l-.879-.341a3.258 3.258 0 01-.442-.71 4.053 4.053 0 00-.204-.682 2.825 2.825 0 01-.116-.791c0-.109-.088-1.005-.088-1.129 0-.124.408-1.085.408-1.085l.91-.403.646-.323.615.54s.581.914.7 1.033c.119.119.674.517.775.558.301.048.605.08.909.093l.646-.666.468-.357.031-.806-.147-.974s.085-.915.116-1.085c.031-.171.612-.975.729-1.114.118-.16.221-.332.307-.512.173-.258.468-.819.517-.927.146-.35.318-.686.517-1.008.144-.186.555-.806.734-1.052.178-.245.614-.806.614-.806l.233-1.519.054-.928s-.258-.093-.17-.542a4.97 4.97 0 00.057-.71 3.702 3.702 0 00-.145-.993 36.969 36.969 0 01-.496-.946c-.057-.11-.383-.602-.383-.602l-.793-.635s-.586-.724-.617-.804c-.031-.08-.639-.837-.499-1.212.139-.374.351-1.842.351-1.842s-.147-1.333-.116-1.426c.031-.093.057-1.098.057-1.098l.207-.713.116-1.238s.088-1.393.119-1.55c.031-.158-.119-1.334-.119-1.334l.258-1.098.411-1.457.499-1.098.057-1.207-.119-1.033-.38-1.034s-.411-.788-.468-.88a217.02 217.02 0 01-.496-.843l-.442-.649-.147-1.033-.17-1.083.054-1.364s.775-.866.909-1.098c.135-.233.646-1.318.646-1.318s.176-1.114.233-1.377a8.823 8.823 0 00-.029-1.33l.233-1.598-.403-.754-.85-.884-.644-.62-.643-.431-.325-.155-1.14.046-1.204-.108-.581-.233-.677-.233-1.034.45-.907.517-.612.465-.207.961-.258 1.034v.604s-.292.31-.383.419c-.09.108-.721.666-.721.79s-.348.651-.348.76c0 .109-.618.45-.618.605 0 .155-.499.573-.499.573l-.173.664-.429.977s.057.99.057 1.114c0 .124-.147 1.131-.147 1.131l-.615.726a4.234 4.234 0 01-.672.559l-.062.31-.349.516-.47.517-.499.649s-.204.516-.258.62a9.773 9.773 0 01-.558.927l.382 1.256s.349.822.409 1.005c.059.184.702 1.085.819 1.116.116.031.705 1.052.705 1.052l.328 1.163.091.744s-.207.71-.295.726c-.088.015-.705.34-.791.517-.085.175-.382.713-.382.713-.107.26-.193.53-.258.803 0 .093.175.652.206.76a5.604 5.604 0 01-.059.62c0 .155-.119 1.238-.119 1.238l.987.79.682.323.819.695.582.807.736.744.556.741.705 1.194.439.742.439 1.24.468 1.132.142.294-.116.961-.437 1.01-.38.776-.881.434-1.051.152a33.78 33.78 0 01-1.085.109l-.776-.233-.646-.37-.583-.852-.618-.99-.028-1.131-.936-.388-1.808-.666-.732-.804-1.142-1.163-1.067-.995-.586-.79-.447-.28-.905-.694-.881-.517-.878-.517-.853-.54-1.057-.1-1.085-.171-1.085-.202-1.034-.186-.643-.046-.587.372-.47.292-.467.258-.613.496-.38.14-.209.589.258.79.295.928.835.615.379.99v.713l-.235.62-1.049.279-.62.215-.731.284c-.088.03-.499.201-.499.201l-.351.357s-.468.372-.38.45c.088.077 0 .757 0 .757l-.191.596-.468.776s-.323.154-.44.232c-.324.126-.657.23-.996.31l-.91.031-.734.016-.421-.626-.377-.775-.09-.803a6.977 6.977 0 00-.236-.946l-.584-.419-.646-.387-1.113-.124-.848-.031-.674.403c-.257.14-.503.3-.734.48-.232.186-.966.993-1.227.915-.261-.078-1.32.654-1.32.654l-1.466.155s-.351 0-.581.015a6.335 6.335 0 00-.824.124s-.499.543-.615.698c-.173.155-.32.62-.44.695-.294.114-.599.2-.909.258h-.581l-.442-.465-.411-.581-.32-.667-1.057-.387a8.365 8.365 0 00-.938-.031c-.085.03-1.55.372-1.55.372l-.641.697-.881.62-1.318.171-1.047.37-.736.45-1.462.712s-.235.517-.259.62c-.213.3-.448.585-.703.85l-.498.517c-.204.22-.43.417-.674.59-.236.139-1.406.803-1.406.803l-.82.605s-.47.434-.702.682a4.082 4.082 0 00-.53.617l-.323.899a2.681 2.681 0 00-.465.589c-.101.261-.24.505-.41.727a6.818 6.818 0 01-.76.516s-.414.837-.56 1.086a3.323 3.323 0 01-.732.695c-.116.108-1.054.821-1.054.821l-1.23.078-.82-.946-1.053-1.222-.91-.775-.747-.881-.457-.739s.235-.946.294-1.145a7.84 7.84 0 000-.79l.223-1.202 1.38-.9 1.343-.93.468-.974-.117-.852-.671-.775-.82-.897-.439-.822-.516-.57h-.941l-.938-.517-.964-.48h-1.232s-.173.516-.259.743c-.085.228-.178.897-.178.897l.587.517.615 1.237.762.977v1.356l-.569.956c-.005.391-.054.78-.147 1.16a5.581 5.581 0 000 1.21s-.147.806-.147.927c0 .122.258 1.365.258 1.365l.675.85.144 1.271.06.85.178.326s-.03.573-.03.852.053 1.005.053 1.005c-.101.28-.187.564-.258.853 0 .124-.057 1.008-.057 1.008s.147.679.173.834c.026.155-.026 1.455-.026 1.455v.517s-.677.17-.88.217c-.205.046-1.437-.326-1.437-.326l-.822-1.144-.845-1.101-.964-1.018s-.47-.605-.586-.605c-.116 0-.938.186-.938.186l-1.292.062-.207.605s-.586.664-.586.775c0 .111-.116.605-.116.729s-.468.666-.468.666l-.907.171s-.672.679-.672.803a.944.944 0 01-.258.517c-.148.202-.822.946-.822.946l-.258.695.028.729.259.093.516.927.44.667.439 1.069s.292.835.292.944c0 .108-.204 1.162-.204 1.162l-.998.695-1.612.31-1.034-.046-1.113-.574-1.408-.385-1.316-1.292-.586-.604-.822-.556-.731-.279-.995.093-.91.093-.32.434.32.943.91.636.995.217 1.525.434.88.416.409 1.054.207 1.129-.763.698-1.033 1.034-.79.323-1.293.108-1.524-.571-1.61-.698-1.76-.775-1.408-.912-1.17-1.674-.7-1.574-.672-2.723.615-1.86s.29-1.145.498-1.292c.21-.148.517-1.034.517-1.034l.057-.679-.437-.375-.852-.667-.618-.217-.845-.602-.88-.775-.88-1.16-1.314-.744-1.261-.806-1.261-.804-.517-.465-.32-1.178v-1.238l.76-.31 1.291.186 1.23.605 1.465.462 1.643.589 2.43 1.411 1.668.974 1.809.605 1.377-.217s1.111.217 1.292.258l2.52.574 1.847-.31 1.343.31s1.261.431 1.38.478c.119.046 1.64.604 1.729.62.465-.126.924-.276 1.374-.45 0 0 .499-.555.59-.633.09-.077.555-.403.555-.403l.517-1.069.294-1.083-.442-1.132-.467-1.175-.383-1.411-.38-2.044-.723-1.661-.584-.943-.966-.202-1.114-.434-1.38-.806-2.136-1.47-1.318-1.734-1.61-1.612-2.372-1.27-1.32-.976-1.23-.307-.879-.202-1.578-.38-2.964-.726-1.783-.54-2.14-1.597-1.346-.865-2.669-.922-2.43-.357-2.634-.912-.674-1.52.088-.912c-1.318.094-2.584.156-3.9.31-1.635.186-3.358.463-4.885 1.099.199.274.412.538.638.79 1.439 1.377 3.359 1.951 4.69 3.437a15.14 15.14 0 011.643 2.26c.496.822 1.08 1.61 1.666 2.416.6.775.986 1.694 1.117 2.664.116 1.068-.06 2.137-.148 3.189-.235 1.845-.47 3.858.517 5.483.966 1.501 2.227 2.819 2.52 4.676.382 2.277-.26 4.491-.704 6.718a36.793 36.793 0 00-.516 7.214c0 1.034 0 2.091.441 3.067.344.733.767 1.426 1.261 2.067a10.9 10.9 0 011.344 2.326c.375.967.62 1.979.731 3.01.204 2.152.029 4.367-.235 6.519-.147 1.163-.351 2.325-.499 3.486a34.181 34.181 0 00-.147 3.467c.031 1.61-.06 3.253-.847 4.615l.235.369-.822 1.272-1.437.881-1.614-.068-4.36 1.938c.85 1.427 1.551 2.928 1.67 4.633.06.553.09 1.142.176 1.7.047.531.066 1.064.056 1.597-.056.956-.553 1.84-.516 2.842a.436.436 0 01-.176.357 8.497 8.497 0 011.375 1.607c.558.871 1.056 2.067.997 3.178.705.215 1.465.447 2.067.91.602.462.969 1.149 1.55 1.521.822.543 1.842.186 2.695.714.853.527 1.142 1.467 1.318 2.413.176.946.41 1.78 1.199 2.367a6.542 6.542 0 011.966 2.046c.876 1.579.876 3.499-.473 4.767a13.09 13.09 0 00-1.346 1.38 1.16 1.16 0 00-.258.667c.03.232.258.385.442.48.614-.17 1.26.044 1.906.292.32.127.776.372 1.137.259a.87.87 0 00.383-.259c.06-.059.178-.168.178-.245v-.341c.176-.791 1.318-1.117 1.961-1.225.587-.109 1.202-.075 1.61.418.734.931.354 2.491.207 3.545-.117.543-.323 1.398-.06 1.905.326.666 1.145.258 1.643.093 1.608-.432 1.67 2.031 2.285 3.005.966 1.563 3.19.095 4.51.08.965 0 1.699.491 2.401 1.191.245.271.532.5.85.68.437.175.913.228 1.377.155.995-.062 2.021-.259 3.016.139a3.631 3.631 0 011.808 1.473c.734 1.362.259 3.113-.79 4.162-.998.993-2.344 1.471-3.605 1.907-1.033.37-2.136.729-3.043 1.408h.292l-.967.602-1.602 1.838-.589 1.55-.966.542-.997 1.135-2.137 1.188-.173 1.163 1.317.742.876.173 1.377 1.144 3.752 1.406a1.923 1.923 0 011.522-.517c.918.031 1.831.151 2.726.359.581.155 1.14.308 1.698.403.558.096 1.054.155 1.583.246a6.916 6.916 0 012.9 1.101c.819.558 1.638 1.439 2.604 1.532.91.059 1.79-.259 2.638-.372.904-.124 2.023-.186 2.868.258.434.234.806.568 1.085.974.295.31.615.623.938.977a4.653 4.653 0 011.346 2.196c0 .065.031.124 0 .189.227.123.434.279.615.462.468.403.85.856 1.55.856.7 0 1.318-.388 1.933-.76.45-.335.942-.606 1.465-.806-.292-.233-.615-.419-.907-.667-.645-.462-1.35-.943-1.844-1.656-.409-.602-.556-1.393-.618-2.137-.028-.85-.057-1.641-.672-2.354-.517-.571-1.351-.883-1.73-1.563-.466-.85-.319-1.889.027-2.741a5.685 5.685 0 011.703-2.352 10.43 10.43 0 012.664-1.506c.323-.184.675-.336 1.034-.491-.029 0-.029 0-.057-.065a7.45 7.45 0 01-.517-1.981c-.119-.711-.147-1.44-.47-2.042-.618-1.193-1.992-1.627-3.1-2.198-.939-.484-1.903-1.117-2.517-1.998-.618-.837-.706-1.86-.502-2.865.148-.695.502-1.271.853-1.889.351-.682.292-1.222.32-1.982.031-.868.326-2.067 1.173-2.341.672-.201 1.876-.323 2.228.465.175.434.232.636.76.744.41.106.555-.281.73-.62a9.797 9.797 0 016.24-5.061c2.667-.76 5.713-.711 8.173.646 1.434.762 2.695 1.94 4.248 2.496 1.403.516 2.638.604 4.013-.14 1.082-.62 2.227-1.377 3.511-1.362 1.145.016 2.201.447 3.225.931 1.033.516 2.08 1.144 3.222 1.361 1.26.235 2.669-.217 3.359-1.442.294-.516.586-1.764-.259-1.981-.558-.122-1.113-.122-1.524-.553-.32-.313-.85-.763-.762-1.305.09-.357.441-.543.589-.853.584-1.098-.499-2.646.788-3.467.558-.403 1.201-.452 1.669-1.083.323-.431.204-.775-.028-1.209-.44-.775-1.034-1.904-.414-2.754.59-.807 1.55-.9 2.465-.838 1.052.062 2.108.326 3.191.403 1.641.109 3.344-.232 4.891-.682 3.313-.945 6.447-2.478 9.607-3.731 1.113-.436 2.17-.961 3.315-1.317.964-.308 2.165-.556 3.134-.155a3.597 3.597 0 012.018 2.617c.147.762.059 1.594.238 2.341.173.677.819 1.07 1.4 1.292a7.248 7.248 0 001.966.434c.615.077 1.202-.062 1.845-.155.584-.096 1.318-.259 1.845.093.51.371.948.833 1.292 1.362.672.896 1.698 1.291 2.638.602.729-.543 1.227-1.365 1.873-2.013.556-.618 1.261-1.194 2.137-1.145 1.171.062 1.7.868 1.905 2.013.116.698.232 1.408.821 1.904.496.403 1.052.465 1.667.543 1.116.17 2.113.638 2.726 1.672 1.082 1.888.555 4.304 1.465 6.252.213.508.573.941 1.033 1.243.465.279 1.111.618 1.667.403.473-.157.775-.56 1.144-.87a2.497 2.497 0 011.375-.621c1.088-.155 1.612.776 2.375 1.442.206.204.441.636.79.543a6.022 6.022 0 001.613-.667c.878-.517 2.253-1.225 3.1-.17.675.917.775 2.369 1.643 3.144 1.109.99 3.163.974 4.566.868.793-.049 2.607-.403 3.077.589.321.621.086 1.142 0 1.778-.062.496.148.589.499.667.643.139 1.318.17 1.933.31.351-.574.759-1.225 1.349-1.52a1.93 1.93 0 011.113-.304c.29.028.615.139.935.149 1.905.047 3.078-1.855 4.336-3.036 1.377-1.25 3.075-1.669 4.863-1.777.938-.062 1.845-.075 2.78-.155.705-.06 1.468-.199 2.199-.047.775.155 1.292.837 1.876 1.396.907.834 1.901 1.237 3.044 1.594 1.521.478 3.046 1.253 4.65 1.408.646.065 1.378.065 1.964-.323.618-.465.853-1.349.879-2.139a1.665 1.665 0 00-.352-1.189c-.258-.22-.517-.357-.775-.561a2.032 2.032 0 01-.775-2.015c.382-1.55 2.403-1.964 3.692-2.196 1.933-.326 3.876-.618 5.741.139 2.024.822 3.633 2.37 5.274 3.858.881.819 1.757 1.638 2.871 2.119a7.492 7.492 0 003.281.635 5.291 5.291 0 001.612-.219c.496-.153.964-.339 1.432-.517.822-.339 1.847-.848 2.814-.755.878.093 1.465.742 1.963 1.486.233.41.529.782.876 1.101.468.403.91.387 1.496.356 1.173-.093 1.726.726 2.253 1.685.259.483.615.977 1.202.806.586-.17 1.033-.387 1.61-.403 1.204-.031 2.255.388 3.428.713.91.259 1.905.45 2.814.047 1.902-.819 2.491-3.284 4.186-4.393.819-.542 1.79-.62 2.757-.434 1.196.258 2.224 1.005 3.485.977.729-.016 1.344.077 1.809.54a5.027 5.027 0 011.726-.013c.615.124 1.142.48 1.76.71.972.35 2.032.367 3.015.05.85-.259 1.757-.667 1.93-1.706.088-.517.031-1.054.088-1.55.057-.476.143-.948.258-1.413a5.88 5.88 0 011.468-2.46c.617-.636 1.403-1.101 1.933-1.809.236-.239.389-.55.434-.884a.506.506 0 00-.091-.416 2.642 2.642 0 00-.994-.757c-.409-.232-.879-.434-1.318-.731a2.364 2.364 0 01-.91-1.144 1.846 1.846 0 01.207-1.564c.674-1.051 2.021-1.423 3.163-1.674 1.26-.233 2.547-.323 3.808-.463 1.465-.157 2.871-.48 4.367-.436 1.55.033 3.134.372 4.392 1.398a6.809 6.809 0 011.644 2.087c.555.962 1.033 1.954 1.521 2.915a30.805 30.805 0 001.809 2.819c.66.765 1.257 1.581 1.786 2.442a11.24 11.24 0 011.054 2.788c.258.961.442 1.999.94 2.821a2.994 2.994 0 001.695 1.39 10.24 10.24 0 002.289.481c1.316.17 3.044.31 3.806 1.628.409.63.556 1.377.82 2.087.263.711.498 1.225 1.232 1.429 1.754.491 3.191-.977 4.775-1.333a2.265 2.265 0 011.403-.016c.411.124.791.372 1.204.447a1.158 1.158 0 001.08-.258c.305-.254.628-.487.966-.695.618-.344 1.409-.517 1.998-.08.669.468.873 1.318.873 2.124a3.874 3.874 0 01-1.61 3.297c-.935.679-2.02.992-2.956 1.718-1.085.822-1.32 2.067-1.465 3.421-.062.561-.09 1.163-.413 1.661-.411.633-1.034.972-1.669 1.251-1.377.574-2.925.822-4.101 1.86-.555.517-1.054 1.194-.935 2.029.116 1.033.437 1.95-.178 2.862.498.494.775 1.225.997 1.967l.85.483 1.054.741 2.375-1.033s2.049-1.643 2.106-1.705c.056-.062 1.932-1.378 1.932-1.378l2.111-2.387s.703-2.041 1.055-2.134c.351-.093 2.284-2.509 2.284-2.509l.617-2.633 2.584-2.137 1.584-1.873 1.641-2.401 1.054-1.888 1.033-1.936.703-2.382.238-1.15.672-1.55.235-1.269-.587-1.131-.558-.726.473-2.385 1.052-2.509 1.436-1.948-1.085-1.985-.907-1.609-1.788-2.091-1.292-1.069-2.377.108-2.194 2.121-1.343-1.271-1.703-.48-.292-1.98-1.406-.232-.821-2.277 2.227-3.067 1.292-1.609 3.617-3.778 2.961-2.137s2.928-2.741 3.016-2.819c.088-.077 3.31-3.268 3.31-3.268l.881-.292 1.292-1.532 1.033-.259 2.372.062 4.191.481 1.698-.14 5.069-.403 2.871-1.131 3.25-.897 2.871.403 2.491 2.044-1.347 2.088 2.868.666 2.781-2.041 2.493.757 1.754-.757-.878-3.16-.204-.915 2.196-2.067s1.904-1.997 1.995-2.106l1.963-2.353 1.463-.621 1.524-.943 7.493.217-.728 3.003h2.106l2.02-1.625 1.731-.745 2.783.497.788-2.168v-2.641l1.494-.928 2.051-.31-.349 1.809-.56 2.028s-.615 1.967-.672 2.067c0 .124-.589 1.92-.615 2.044-.026.124-.377.915-.377.915l-1.967-.186-1.844 1.292-1.809 1.033-2.548 2.556-2.284 4.351-.499.602s-.674.995-.733 1.101c-.06.106-.437.684-.437.684l-3.664 3.049-.258 1.53-.964 2.155-.824 1.126-1.23.577-1.227 1.423-.587 1.346.878 2 .233 1.579-.116 1.904-.148 1.008.117 1.997-.409 2.212-.516 1.333.617 2.103.029 1.861-.204 1.256.516 1.005.148 1.457.467 1.39s.44.651.587.667c.147.015 1.057.294 1.057.294l.819-.325.728-.928.85-.974s.822-.915.879-1.01c.057-.096.561-1.292.561-1.292s.41-.959.516-1.127c.106-.168.584-.945.703-1.116.119-.171 1.346-2.041 1.346-2.041l1.377-1.876.587-1.576s2.021-.899 2.168-1.034c.147-.134 1.292-1.113 1.292-1.113l1.23-.233.793-1.114-.031-2.495.031-2.476.116-.697.383-.259.493-.803.793-1.83.734-2.067.085-.31s.031-1.054.031-1.178c0-.124.174-1.734.174-1.734l.206-.517-1.292-.297-1.292-1.268-.731-1.427.558-2.118.204-.667 1.491-.775.53-1.07.966-.93.207-.481.669-1.594c.112-.261.239-.515.383-.759.059-.031 1.64-.649 1.64-.649l1.23-.419 1.321-.046.759-1.147.879-.819 1.085-.698 1.261.326.762.516.76-.449 1.033-1.269 1.173-.124 1.083.881 1.085 1.054 1.964-.258 1.17-.202 1.406.124s1.054.419 1.142.497c.088.077 1.173.741 1.173.741l1.23-.804.323-.635-.029-1.439a14.081 14.081 0 01.029-1.551c.059-.108.493-.865.493-.865l.354-.403.145-.791.969-.416 1.085-.744 1.344-.822.997-.418.615-.974.824-1.331.199-.853.941-.899 1.085-.416 1.052-.015s1.405.602 1.583.695c.179.093 2.429-.419 2.429-.419l.646-.85.938-.465.499-.961s1.292-.171 1.403-.171c.111 0 1.116-.137 1.232 0 .484.357.992.678 1.522.961.119.031 2.067-.449 2.067-.449l.235-.571.321-1.364v-1.119l-.396-.543-1.465-1.486-.759-.806s-.819-.682-.646-.883c.173-.202-.026-2.067-.026-2.067l-.295-1.269-.147-.62-.615-.68-.558-1.007-1.493.062-.321-.605.703-1.207.116-.434s.145-.837.173-.961a51.09 51.09 0 01.295-1.005h1.524l1.378.372c.116.047.876.45.994.372l1.522-1.178.706-.295 1.051-1.501.499-1.517.147-.914-1.232-2.266-.38-2.044 1.61-.403 2.519.201.468 1.292-.587 1.517.881 1.292 1.349 1.101.992.602 2.326.258 2.281.915 1.057 1.78.411.558.775.078.323-.14 1.033.078.62.372v.71l-.206.434.206.853.732.232.7.851.734.806.731.31 1.057.258.907-.108.731-.776.258-1.206s.085-.806.085-.93.352-1.809.352-1.809l-.085-1.147.292-.602.617-.589.964-.838.731-1.067s.91.434 1.173.388c.264-.047 1.55-.233 1.55-.233l.941-.279.408-.496.207-.517.411-.571.32-.79-.201-.858z" fill="#2D7EAA"/><path d="M299.811 215.298c-.202-1.762 1.232-2.984 2.584-3.667a23.303 23.303 0 012.168-.85c.677-.214 1.411-.386 1.904-.912.354-.371.414-.881.471-1.407.056-.712.184-1.416.382-2.103.442-1.257 1.321-2.107 2.463-2.726.881-.495 2.083-.848 2.7-1.762.332-.544.51-1.167.517-1.804 0-.6-.119-1.623-.912-1.623-.794 0-1.318.695-1.936 1.082-.79.482-1.612.17-2.403-.152-.853-.343-1.672-.016-2.465.355-.794.371-1.496.773-2.287.941-.848.139-1.788.108-2.466-.371-.643-.43-.907-1.08-1.111-1.804-.204-.618-.351-1.425-.775-1.917-.424-.492-1.171-.729-1.809-.868-1.496-.292-3.14-.258-4.514-1.054-1.646-.928-1.998-2.835-2.44-4.579a9.335 9.335 0 00-1.139-2.768c-.587-.896-1.261-1.651-1.876-2.489-1.321-1.783-2.143-3.806-3.288-5.712a4.801 4.801 0 00-1.669-1.822 5.77 5.77 0 00-2.145-.791c-1.579-.258-3.194-.075-4.718.188-1.202.183-2.378.232-3.577.415-.686.099-1.363.25-2.026.451a3.55 3.55 0 00-1.462.773 1.07 1.07 0 00-.326 1.113c.147.371.561.634.881.822.731.461 1.905.801 2.344 1.688.646 1.45-.907 2.672-1.845 3.45a5.981 5.981 0 00-1.7 2.208 5.057 5.057 0 00-.383 1.49c-.09.489-.031.968-.09 1.463-.088.961-.499 1.783-1.347 2.263-.804.441-1.696.7-2.612.757a4.861 4.861 0 01-1.641-.173 14.1 14.1 0 01-1.409-.602 3.595 3.595 0 00-1.697-.258c.132.326.182.68.147 1.031-.147 1.221-.793 2.288-1.352 3.349a6.594 6.594 0 00-.615 1.438c-.09.376-.09.668.205.902.467.387 1.263.402 1.847.415 1.173.049 2.287-.152 3.463-.258 2.067-.201 4.455.016 5.747 1.979.822 1.255 2.067 4.071-.207 4.458a21.9 21.9 0 01-3.196.216c-1.292.031-2.724.093-3.752 1.005-.851.773-1.466 1.804-2.435 2.446-.969.641-2.144.742-3.282.806-1.206 0-2.496-.033-3.55.598-.941.621-1.706 1.44-2.786 1.783-.969.356-1.935.294-2.93.168-.972-.075-1.941-.075-2.233 1.056-.176.722 0 1.312.292 1.948.235.495.501 1.067.295 1.595-.352.91-1.23 1.404-2.021 1.822a20.935 20.935 0 00-2.644 1.804 8.82 8.82 0 01-2.584 1.376c-1.318.355-2.667.42-4.018.603a33.918 33.918 0 00-4.393.822c-1.352.337-2.727.773-4.107 1.03a9.797 9.797 0 01-4.018-.216 11.653 11.653 0 01-3.137-1.562c-1.116-.698-2.228-1.412-3.434-1.888a15.535 15.535 0 00-3.724-.993 8.537 8.537 0 00-2.491.155c-.91.219-1.848.466-2.757.652-.844.226-1.712.347-2.585.358-.612-.064-1.405-.173-1.788-.729-.499-.634-.558-1.44-.468-2.262.026-.279.088-.616-.059-.846a2.284 2.284 0 00-1.085-.93c-1.057-.541-2.326-.541-3.287-1.224-.876-.603-1.463-1.512-2.052-2.381-.589-.868-1.321-1.736-2.344-1.984-.822-.214-1.731-.09-2.522-.031-1.551.124-3.812.498-4.91-.909-1.088-1.472-.442-3.311.057-4.858.294-.773.561-1.625.499-2.473a3.037 3.037 0 00-1.435-2.342c-.589-.397-1.292-.49-1.966-.567-.85-.109-1.672-.188-2.491-.343-1.264-.232-2.843-.742-3.225-2.214a5.003 5.003 0 01-1.264.668c-1.233.417-2.669.495-3.46 1.734-.675 1.126-1.23 2.288-2.23 3.187a10.6 10.6 0 01-2.993 1.887c-.669.306-1.346.587-1.992.85-.646.263-1.321.371-1.876.714-1.233.757-1.114 1.945-1.321 3.197-.204 1.165-1.144 1.717-2.067 2.108-1.034.431-2.088.65-3.14.956-.674.232-1.586.606-1.408 1.521.235 1.345 1.292 2.334 1.437 3.728a2.84 2.84 0 01-1.055 2.505c.237.348.33.775.259 1.19-.119.709-.677 1.252-1.323 1.564-.763.371-1.525.554-2.068 1.219-.467.559-.793 1.221-1.349 1.657-.852.515-1.847.446-2.785.603a2.906 2.906 0 00-1.551.556c-.287.189-.581.48-.904.668a2.725 2.725 0 01-2.378.371c-.819-.309-1.584-.974-2.465-.588-.966.402-1.61 1.188-2.196 2.088a8.137 8.137 0 01-1.551 1.669.237.237 0 01-.057.258c-.325.557.321 1.031.646 1.314.587.467 1.233.822 1.809 1.255a5.179 5.179 0 011.551 2.134c.199.473.347.966.439 1.471.059.433.116.915.411 1.255a.517.517 0 01.031.569.672.672 0 01.258.124 3.359 3.359 0 011.434 1.762c.233.606.352 1.593 1.114 1.717.331.031.652.132.941.296.329.25.625.542.878.868.247.28.463.586.644.912h.09c.791.186 1.701.062 2.026.974.38 1.031-.09 2.399.67 3.296.382.495.966.742 1.175 1.361.125.329.145.689.057 1.03-.057.312-.292.807-.175 1.116.056.124.47.312.617.492.147.181.411.402.383.65a2.974 2.974 0 01-.065.44h.028a.297.297 0 01.207.065.733.733 0 01.587.257c.584.93.088 1.765-.646 2.381-.352.312-.763.559-1.086.869-.258.216-.558.515-.589.834a1.645 1.645 0 00.881 1.364c.677.368 1.528.18 2.171.646.324.239.577.56.734.93a8.9 8.9 0 00.499 1.054 2.493 2.493 0 002.199 1.142c.822 0 1.672-.369 2.496-.258.848.186 1.315.802 1.93 1.42 1.499 1.456 3.316 2.505 5.169 3.466.964.435 1.904.93 2.873 1.425.878.504 1.8.929 2.755 1.267 1.318.372 2.638.372 3.99.683.517.124 1.111.258 1.579.619.775-.312 1.55-.495 2.351-.742.701-.312 1.199-.807 1.846-1.237.555-.343 1.263-.714 1.932-.59a6.345 6.345 0 011.851.649 3.17 3.17 0 001.493.495c.476.001.949.063 1.409.185.399.131.756.366 1.033.681.117-.06.207-.124.323-.06.879.124 1.318-1.288 1.876-1.762.882-.866 2.109-.93 3.138-1.49a14.413 14.413 0 012.343-1.03c.822-.307 1.732-.74 2.585-.678.876 0 1.111.678 1.522 1.265.252.375.582.692.969.928.273.255.531.524.775.806.071.099.149.192.235.279a4.195 4.195 0 013.101.257c.408.188.848.619.848 1.114a1.352 1.352 0 01-.44 1.053 4.663 4.663 0 011.378 2.193 5.19 5.19 0 01-.235 3.28c-.388.777-.82 1.532-1.292 2.26-.323.683-.822 1.546-.644 2.26.016.217.074.428.173.621 0 .059 0 .059.062.124-.031-.065.057 0 .026 0h.517c.395.036.782.14 1.142.306.254.153.499.32.734.5.295.431.116.773.116 1.201.031.807.615 1.239 1.264 1.61.337.177.635.42.876.714.216.374.306.806.258 1.235a3.935 3.935 0 01-.382 1.641h.295c.467.064.762.124 1.033.618.108.255.148.533.116.807-.065.188-.085.39-.059.587v.06h.028a.733.733 0 00.352-.06c.178 0 .382-.064.586-.064a1.411 1.411 0 011.143.868c.031 0 .031.062.059.062h.119c.615.124 1.171.433 1.76.495.499.062.734-.309.881-.742.289-.807.465-1.636.775-2.384.31-.747.706-1.456 1.352-1.888a3.152 3.152 0 012.431-.616c.913.123 1.822.616 2.786.554.912-.062 1.38-.802 2.083-1.361.589-.461 1.525-.649 2.202-.183a1.591 1.591 0 01.467 1.667c.323.065.677 0 1.034.065a1.589 1.589 0 011.259.773c.172.346.261.727.258 1.113 0 .371-.147.806-.122 1.149 0 .616.647.675 1.088.925l1.908-.68 1.348-.186 1.698.122.941-.122.292 1.175-.352 1.206.967 1.485h.793l.517-2.258.703-.433h1.059l1.61-.618 1.233-1.018 2.46-.188 1.499-.806-.618-1.268.179-1.425.734-.619 1.292.189 1.524 1.607 3.018.258 2.326-1.049s1.114-.994 1.233-1.053a9.608 9.608 0 011.233-.124l2.051-1.58.734-1.886 1.145-.992 1.23-1.206.258-.258.236-2.383.997-2.384 2.522-1.638 1.055-1.114s.586-1.886.615-2.009c.028-.065.41-1.114.586-1.425.176-.312 1.086-1.515 1.086-1.515l-1.437-.495-2.491-.773.969-1.791.672-.961.997-1.804 1.615 1.234 1.315-1.389-.876-1.288-1.351-1.391-1.406-1.114-1.935-2.63v-.959l-1.551-2.443-.586-.93-.776-1.175 1.468-1.579.349-1.516-.584-1.489 2.067-1.886.589-.479 1.378-2.088 3.576.436.881-1.734-.258-1.255h-3.576l-.995-1.095-.732-.977h-1.263l-.825.758-.147 1.499-1.55.866-1.908-.618-.467-1.652-.233-1.397s-2.351-1.252-2.351-1.342c0-.09-.383-1.904-.383-1.904l1.292-.729 1.551 1.131 2.049.123.734-1.254.411-.804 1.32-1.884.615-1.598 1.468-.257 1.809-1.134 1.264-.866 1.731.881-.295 1.804-1.728.433a6.324 6.324 0 00-.442.732 60.01 60.01 0 00-.204 1.342s-1.349.758-1.468.789c-.119.031-.437 1.288-.437 1.288l.848.946.909.678.998-.307.258-.606.556-.773 1.318-.355.586-.559s.734-.879.775-.91c.042-.031.585-.683.675-.742.031-.031 1.171-.76 1.171-.76l.881-.029.175.091a3.398 3.398 0 011.466-1.255c.878-.371 1.791-.464 2.7-.786 1.034-.433 1.582-1.222 2.021-2.263.411-.927.793-2.022 1.55-2.687 1.261-1.031 3.021-.807 4.456-1.103 1.762-.402 3.1-1.899 4.491-2.999a11.217 11.217 0 012.46-1.528c.703-.294 1.527-.516 2.261-.359.09.019.178.051.258.096.553-.709.205-1.497.112-2.304z" fill="#A01F32"/><path d="M300.811 214.298c-.202-1.762 1.232-2.984 2.584-3.667a23.303 23.303 0 012.168-.85c.677-.214 1.411-.386 1.904-.912.354-.371.414-.881.471-1.407.056-.712.184-1.416.382-2.103.442-1.257 1.321-2.107 2.463-2.726.881-.495 2.083-.848 2.7-1.762.332-.544.51-1.167.517-1.804 0-.6-.119-1.623-.912-1.623-.794 0-1.318.695-1.936 1.082-.79.482-1.612.17-2.403-.152-.853-.343-1.672-.016-2.465.355-.794.371-1.496.773-2.287.941-.848.139-1.788.108-2.466-.371-.643-.43-.907-1.08-1.111-1.804-.204-.618-.351-1.425-.775-1.917-.424-.492-1.171-.729-1.809-.868-1.496-.292-3.14-.258-4.514-1.054-1.646-.928-1.998-2.835-2.44-4.579a9.335 9.335 0 00-1.139-2.768c-.587-.896-1.261-1.651-1.876-2.489-1.321-1.783-2.143-3.806-3.288-5.712a4.801 4.801 0 00-1.669-1.822 5.77 5.77 0 00-2.145-.791c-1.579-.258-3.194-.075-4.718.188-1.202.183-2.378.232-3.577.415-.686.099-1.363.25-2.026.451a3.55 3.55 0 00-1.462.773 1.07 1.07 0 00-.326 1.113c.147.371.561.634.881.822.731.461 1.905.801 2.344 1.688.646 1.45-.907 2.672-1.845 3.45a5.981 5.981 0 00-1.7 2.208 5.057 5.057 0 00-.383 1.49c-.09.489-.031.968-.09 1.463-.088.961-.499 1.783-1.347 2.263-.804.441-1.696.7-2.612.757a4.861 4.861 0 01-1.641-.173 14.1 14.1 0 01-1.409-.602 3.595 3.595 0 00-1.697-.258c.132.326.182.68.147 1.031-.147 1.221-.793 2.288-1.352 3.349a6.594 6.594 0 00-.615 1.438c-.09.376-.09.668.205.902.467.387 1.263.402 1.847.415 1.173.049 2.287-.152 3.463-.258 2.067-.201 4.455.016 5.747 1.979.822 1.255 2.067 4.071-.207 4.458a21.9 21.9 0 01-3.196.216c-1.292.031-2.724.093-3.752 1.005-.851.773-1.466 1.804-2.435 2.446-.969.641-2.144.742-3.282.806-1.206 0-2.496-.033-3.55.598-.941.621-1.706 1.44-2.786 1.783-.969.356-1.935.294-2.93.168-.972-.075-1.941-.075-2.233 1.056-.176.722 0 1.312.292 1.948.235.495.501 1.067.295 1.595-.352.91-1.23 1.404-2.021 1.822a20.935 20.935 0 00-2.644 1.804 8.82 8.82 0 01-2.584 1.376c-1.318.355-2.667.42-4.018.603a33.918 33.918 0 00-4.393.822c-1.352.337-2.727.773-4.107 1.03a9.797 9.797 0 01-4.018-.216 11.653 11.653 0 01-3.137-1.562c-1.116-.698-2.228-1.412-3.434-1.888a15.535 15.535 0 00-3.724-.993 8.537 8.537 0 00-2.491.155c-.91.219-1.848.466-2.757.652-.844.226-1.712.347-2.585.358-.612-.064-1.405-.173-1.788-.729-.499-.634-.558-1.44-.468-2.262.026-.279.088-.616-.059-.846a2.284 2.284 0 00-1.085-.93c-1.057-.541-2.326-.541-3.287-1.224-.876-.603-1.463-1.512-2.052-2.381-.589-.868-1.321-1.736-2.344-1.984-.822-.214-1.731-.09-2.522-.031-1.551.124-3.812.498-4.91-.909-1.088-1.472-.442-3.311.057-4.858.294-.773.561-1.625.499-2.473a3.037 3.037 0 00-1.435-2.342c-.589-.397-1.292-.49-1.966-.567-.85-.109-1.672-.188-2.491-.343-1.264-.232-2.843-.742-3.225-2.214a5.003 5.003 0 01-1.264.668c-1.233.417-2.669.495-3.46 1.734-.675 1.126-1.23 2.288-2.23 3.187a10.6 10.6 0 01-2.993 1.887c-.669.306-1.346.587-1.992.85-.646.263-1.321.371-1.876.714-1.233.757-1.114 1.945-1.321 3.197-.204 1.165-1.144 1.717-2.067 2.108-1.034.431-2.088.65-3.14.956-.674.232-1.586.606-1.408 1.521.235 1.345 1.292 2.334 1.437 3.728a2.84 2.84 0 01-1.055 2.505c.237.348.33.775.259 1.19-.119.709-.677 1.252-1.323 1.564-.763.371-1.525.554-2.068 1.219-.467.559-.793 1.221-1.349 1.657-.852.515-1.847.446-2.785.603a2.906 2.906 0 00-1.551.556c-.287.189-.581.48-.904.668a2.725 2.725 0 01-2.378.371c-.819-.309-1.584-.974-2.465-.588-.966.402-1.61 1.188-2.196 2.088a8.137 8.137 0 01-1.551 1.669.237.237 0 01-.057.258c-.325.557.321 1.031.646 1.314.587.467 1.233.822 1.809 1.255a5.179 5.179 0 011.551 2.134c.199.473.347.966.439 1.471.059.433.116.915.411 1.255a.517.517 0 01.031.569.672.672 0 01.258.124 3.359 3.359 0 011.434 1.762c.233.606.352 1.593 1.114 1.717.331.031.652.132.941.296.329.25.625.542.878.868.247.28.463.586.644.912h.09c.791.186 1.701.062 2.026.974.38 1.031-.09 2.399.67 3.296.382.495.966.742 1.175 1.361.125.329.145.689.057 1.03-.057.312-.292.807-.175 1.116.056.124.47.312.617.492.147.181.411.402.383.65a2.974 2.974 0 01-.065.44h.028a.297.297 0 01.207.065.733.733 0 01.587.257c.584.93.088 1.765-.646 2.381-.352.312-.763.559-1.086.869-.258.216-.558.515-.589.834a1.645 1.645 0 00.881 1.364c.677.368 1.528.18 2.171.646.324.239.577.56.734.93a8.9 8.9 0 00.499 1.054 2.493 2.493 0 002.199 1.142c.822 0 1.672-.369 2.496-.258.848.186 1.315.802 1.93 1.42 1.499 1.456 3.316 2.505 5.169 3.466.964.435 1.904.93 2.873 1.425.878.504 1.8.929 2.755 1.267 1.318.372 2.638.372 3.99.683.517.124 1.111.258 1.579.619.775-.312 1.55-.495 2.351-.742.701-.312 1.199-.807 1.846-1.237.555-.343 1.263-.714 1.932-.59a6.345 6.345 0 011.851.649 3.17 3.17 0 001.493.495c.476.001.949.063 1.409.185.399.131.756.366 1.033.681.117-.06.207-.124.323-.06.879.124 1.318-1.288 1.876-1.762.882-.866 2.109-.93 3.138-1.49a14.413 14.413 0 012.343-1.03c.822-.307 1.732-.74 2.585-.678.876 0 1.111.678 1.522 1.265.252.375.582.692.969.928.273.255.531.524.775.806.071.099.149.192.235.279a4.195 4.195 0 013.101.257c.408.188.848.619.848 1.114a1.352 1.352 0 01-.44 1.053 4.663 4.663 0 011.378 2.193 5.19 5.19 0 01-.235 3.28c-.388.777-.82 1.532-1.292 2.26-.323.683-.822 1.546-.644 2.26.016.217.074.428.173.621 0 .059 0 .059.062.124-.031-.065.057 0 .026 0h.517c.395.036.782.14 1.142.306.254.153.499.32.734.5.295.431.116.773.116 1.201.031.807.615 1.239 1.264 1.61.337.177.635.42.876.714.216.374.306.806.258 1.235a3.935 3.935 0 01-.382 1.641h.295c.467.064.762.124 1.033.618.108.255.148.533.116.807-.065.188-.085.39-.059.587v.06h.028a.733.733 0 00.352-.06c.178 0 .382-.064.586-.064a1.411 1.411 0 011.143.868c.031 0 .031.062.059.062h.119c.615.124 1.171.433 1.76.495.499.062.734-.309.881-.742.289-.807.465-1.636.775-2.384.31-.747.706-1.456 1.352-1.888a3.152 3.152 0 012.431-.616c.913.123 1.822.616 2.786.554.912-.062 1.38-.802 2.083-1.361.589-.461 1.525-.649 2.202-.183a1.591 1.591 0 01.467 1.667c.323.065.677 0 1.034.065a1.589 1.589 0 011.259.773c.172.346.261.727.258 1.113 0 .371-.147.806-.122 1.149 0 .616.647.675 1.088.925l1.908-.68 1.348-.186 1.698.122.941-.122.292 1.175-.352 1.206.967 1.485h.793l.517-2.258.703-.433h1.059l1.61-.618 1.233-1.018 2.46-.188 1.499-.806-.618-1.268.179-1.425.734-.619 1.292.189 1.524 1.607 3.018.258 2.326-1.049s1.114-.994 1.233-1.053a9.608 9.608 0 011.233-.124l2.051-1.58.734-1.886 1.145-.992 1.23-1.206.258-.258.236-2.383.997-2.384 2.522-1.638 1.055-1.114s.586-1.886.615-2.009c.028-.065.41-1.114.586-1.425.176-.312 1.086-1.515 1.086-1.515l-1.437-.495-2.491-.773.969-1.791.672-.961.997-1.804 1.615 1.234 1.315-1.389-.876-1.288-1.351-1.391-1.406-1.114-1.935-2.63v-.959l-1.551-2.443-.586-.93-.776-1.175 1.468-1.579.349-1.516-.584-1.489 2.067-1.886.589-.479 1.378-2.088 3.576.436.881-1.734-.258-1.255h-3.576l-.995-1.095-.732-.977h-1.263l-.825.758-.147 1.499-1.55.866-1.908-.618-.467-1.652-.233-1.397s-2.351-1.252-2.351-1.342c0-.09-.383-1.904-.383-1.904l1.292-.729 1.551 1.131 2.049.123.734-1.254.411-.804 1.32-1.884.615-1.598 1.468-.257 1.809-1.134 1.264-.866 1.731.881-.295 1.804-1.728.433a6.324 6.324 0 00-.442.732 60.01 60.01 0 00-.204 1.342s-1.349.758-1.468.789c-.119.031-.437 1.288-.437 1.288l.848.946.909.678.998-.307.258-.606.556-.773 1.318-.355.586-.559s.734-.879.775-.91c.042-.031.585-.683.675-.742.031-.031 1.171-.76 1.171-.76l.881-.029.175.091a3.398 3.398 0 011.466-1.255c.878-.371 1.791-.464 2.7-.786 1.034-.433 1.582-1.222 2.021-2.263.411-.927.793-2.022 1.55-2.687 1.261-1.031 3.021-.807 4.456-1.103 1.762-.402 3.1-1.899 4.491-2.999a11.217 11.217 0 012.46-1.528c.703-.294 1.527-.516 2.261-.359.09.019.178.051.258.096.553-.709.205-1.497.112-2.304z" fill="#D91F32"/><path d="M160.499 250.371l1.391 2.304 3.11.37-2.252 1.794.531 2.532-2.78-1.196-2.781 1.196.531-2.532-2.249-1.794 3.11-.37 1.389-2.304zm4.697-2.707l.669.34.567-.633-.009 1.06.577.612-.675.316-.21 1.012-.408-.865-.707.013.424-.851-.228-1.004zm3.305 2.707l.462.988 1.037.158-.749.769.177 1.085-.927-.512-.926.512.177-1.085-.752-.769 1.037-.158.464-.988zm0 5l.462.659 1.037.105-.749.512.177.724-.927-.341-.926.341.177-.724-.752-.512 1.037-.105.464-.659zm-1.795 3.293l-.34 1.004.634.851-1.062-.013-.612.865-.313-1.012-1.013-.316.866-.612-.014-1.06.849.633 1.005-.34z" fill="#FF0"/><path d="M278 257.371h1" stroke="#fff" stroke-width="3" stroke-linecap="round" stroke-linejoin="round"/><path d="M282 256.371c15.673-2.026 37.065-13.402 41-51" stroke="#fff" stroke-width="3" stroke-linecap="round" stroke-linejoin="round" stroke-dasharray="11.72 11.72"/><path d="M323 204.371c.36-.667.68-1.334 1-2" stroke="#fff" stroke-width="3" stroke-linecap="round" stroke-linejoin="round"/><path d="M278 258.371l-2-1.487 1.989-1.513.011 3zm46.993-55.901a.732.732 0 00-.171-.572 1.37 1.37 0 00-.621-.411 2.156 2.156 0 00-.859-.111 1.961 1.961 0 00-.806.228c-.228.128-.395.299-.477.49a.684.684 0 00.013.583c.092.189.266.356.5.479.234.123.518.197.816.212.39.019.776-.064 1.076-.231.3-.168.49-.407.529-.667z" fill="#fff"/><path d="M265 234.371c.318.386.65.72 1 1" stroke="#fff" stroke-width="3" stroke-linecap="round" stroke-linejoin="round"/><path d="M269 235.35c9.63.292 22.962-2.442 32-10.979" stroke="#fff" stroke-width="3" stroke-linecap="round" stroke-linejoin="round" stroke-dasharray="11.45 11.45"/><path d="M302 223.371c.34-.324.673-.657 1-1" stroke="#fff" stroke-width="3" stroke-linecap="round" stroke-linejoin="round"/><path d="M264.626 236.371L263 234.406l2-1.035-.374 3zm39.128-13.344a1 1 0 10-1.507-1.314 1 1 0 001.507 1.314z" fill="#fff"/><path d="M269 231.371h1" stroke="#fff" stroke-width="3" stroke-linecap="round" stroke-linejoin="round"/><path d="M273 231.318c8.002.37 17.564-1.118 27-6.947" stroke="#fff" stroke-width="3" stroke-linecap="round" stroke-linejoin="round" stroke-dasharray="11.69 11.69"/><path d="M301 223.371a88.735 88.735 0 002-1" stroke="#fff" stroke-width="3" stroke-linecap="round" stroke-linejoin="round"/><path d="M268.647 232.371l-1.647-1.29 2-.71-.353 2zm34.957-9.204a1.004 1.004 0 00.363-1.05.996.996 0 00-.831-.737 1.002 1.002 0 00-1.134 1.05 1 1 0 001.602.737zm-69.743 10.204v-3.76H233v-.24h2v.24h-.868v3.76h-.271zm2.378-1.789c-.511 0-.836.149-.836.679v.629a.845.845 0 01-.097.481H235a.817.817 0 00.108-.481v-.624c0-.432.185-.72.647-.816-.443-.091-.647-.36-.647-.828v-.349c0-.564.268-.902.959-.902H237v4h-.293v-1.789h-.468zm-.164-1.971c-.486 0-.672.257-.672.686v.377c0 .536.307.668.831.668h.473v-1.731h-.632zm2.072 1.88v1.88H238v-4h.147v1.88h.702v-1.88H239v4h-.151v-1.88h-.702zm2.748-.464c.76 0 1.105.312 1.105.947v.435c0 .584-.285.962-1.023.962H240v-4h.313v1.656h.582zm.082 2.115c.527 0 .712-.281.712-.721v-.469c0-.48-.245-.692-.794-.692h-.57v1.877l.652.005zm3.662 1.229v-.591H242v-4.409h.368v4.145h1.78v-4.145h.378v4.145H245v.855h-.361zm2.36-3.997v.102a.723.723 0 01-.16.491.935.935 0 01-.475.309.886.886 0 01.477.303.675.675 0 01.147.493v.305c0 .573-.276.994-.991.994s-.992-.421-.992-.994v-.326h.277v.342c0 .42.19.741.695.741.505 0 .699-.314.699-.765v-.302a.516.516 0 00-.028-.252.594.594 0 00-.149-.219.697.697 0 00-.242-.146.793.793 0 00-.291-.046h-.257v-.236h.277a.819.819 0 00.278-.055.737.737 0 00.23-.145.584.584 0 00.145-.21.53.53 0 00.037-.242v-.144c0-.451-.194-.765-.699-.765-.505 0-.701.314-.701.741v.213H245v-.201c0-.567.276-.989.986-.989.709 0 1.013.432 1.013 1.003z" fill="#fff"/><path d="M248.055 231.491l-.737 1.88H247v-4h.269v3.421l.654-1.633.724-1.788H249v4h-.269v-3.547l-.676 1.667zm2.24 0v1.88H250v-4h.295v1.88h1.402v-1.88H252v4h-.303v-1.88h-1.402zm2.6-.464c.76 0 1.105.312 1.105.947v.435c0 .584-.285.962-1.023.962H252v-4h.313v1.656h.582zm.082 2.115c.527 0 .712-.281.712-.721v-.469c0-.48-.245-.692-.794-.692h-.57v1.877l.652.005zm-4.197-7.771v-.609h-1.582v.609H247v-.873h.228c.118-.198.177-.448.164-.701l.132-3.426h1.205v4.125H249v.872l-.22.003zm-1.187-1.582c.013.251-.043.5-.156.701h1.061v-3.853h-.782l-.123 3.152zm2.819.478l-.188 1.104H250l.814-5h.356l.83 5h-.244l-.188-1.104h-1.156zm.035-.3h1.088l-.546-3.218-.542 3.218zm2.779-3.297l-.144 3.472c-.035.677-.166 1.199-1.01 1.229H252v-.3c.648 0 .689-.423.689-.92l.172-3.78H255v4.991h-.386v-4.692h-1.388zm3.014 2.47c-.51 0-.837.186-.837.849v.782c.016.206-.017.413-.097.6H255c.086-.185.124-.393.11-.6v-.776c0-.543.185-.9.644-1.019-.44-.114-.644-.45-.644-1.035v-.443c0-.708.269-1.127.958-1.127H257v4.991h-.295v-2.231l-.465.009zm-.166-2.461c-.486 0-.671.321-.671.855v.47c0 .672.306.837.829.837h.473v-2.162h-.631zm2.075 2.343v2.349H258v-5h.149v2.351h.7v-2.351H259v5h-.151v-2.349h-.7zm2.747-.596c.759 0 1.104.394 1.104 1.201v.543c0 .726-.285 1.201-1.024 1.201H260v-5h.311v2.055h.585zm.08 2.641c.53 0 .713-.348.713-.9v-.6c0-.6-.245-.864-.793-.864h-.571v2.34l.651.024zm-18.221 17.304v-.593H241v-4.407h.245v4.142h1.186v-4.142h.254v4.142H243v.858h-.245zm1.3-2.877l-.735 1.877H243v-3.996h.269v3.415l.654-1.632.724-1.787H245v3.995h-.269v-3.527l-.676 1.655zm2.24-.002v1.879H246v-4h.295v1.881h1.402v-1.881H248v4h-.303v-1.879h-1.402zm4.379 2.879v-.609h-2.356v.609H248v-.873h.338a.931.931 0 00.247-.701l.198-3.426h1.808v4.125H251v.872l-.326.003zm-1.781-1.582c.02.251-.062.5-.231.701h1.587v-3.853h-1.187l-.169 3.152zm2.721-.301l-.278.883H251l1.221-4h.534l1.245 4h-.366l-.278-.883h-1.742zm.057-.24h1.628l-.823-2.577-.805 2.577zm2.329-1.883c0-.574.306-.994.993-.994.688 0 1.007.42 1.007.994v2.009c0 .574-.306.997-1.007.997-.701 0-.993-.423-.993-.997v-2.009zm.297 2.028c0 .425.197.741.696.741.499 0 .707-.316.707-.741v-2.045c0-.427-.202-.741-.707-.741-.505 0-.696.314-.696.741v2.045zm-4.015 14.978v3.759h1.073v-3.759h.287v3.759h1.074v-3.759H253v4h-3v-4h.282zm3.331 3.115l-.278.885H253l1.22-4h.533l1.247 4h-.369l-.278-.885h-1.74zm.057-.228h1.626l-.821-2.585-.805 2.585zm2.627-.768v1.881H256v-4h.297v1.878h1.4v-1.878H258v4h-.303v-1.881h-1.4zm3.188.015l-1.128 1.866H258l1.255-2.077-1.168-1.923h.397l1.051 1.721 1.055-1.721h.333l-1.168 1.923 1.245 2.077h-.387l-1.128-1.866zm1.924.981l-.185.885H261l.814-4h.356l.83 4h-.244l-.188-.885h-1.159zm.036-.228h1.087l-.548-2.585-.539 2.585zm2.877 1.113H264v-4.216h.27v3.608l.565-1.501.811-2.107H266v4.216h-.27v-3.73l-1.408 3.73zm1.351-5a.6.6 0 01-.221.369.68.68 0 01-.425.147.68.68 0 01-.425-.147.604.604 0 01-.221-.369h.205c0 .253.206.339.438.339.233 0 .438-.096.449-.339h.2zm15.622-38.881v1.881H281v-4h.295v1.878h1.402v-1.878H283v4h-.303v-1.881h-1.402zm2.322.996l-.282.885H283l1.22-4h.536l1.244 4h-.369l-.278-.885h-1.736zm.053-.228h1.629l-.824-2.585-.805 2.585z" fill="#fff"/><path d="M286.996 215.505l-.757 1.866H286l.841-2.077-.783-1.923h.257l.703 1.721.707-1.721h.224l-.783 1.923.834 2.077h-.26l-.744-1.866zm2.004-1.14c0-.572.306-.994.993-.994.688 0 1.007.422 1.007.994v2.012c0 .573-.306.994-1.007.994-.701 0-.993-.421-.993-.994v-2.012zm.3 2.028c0 .427.194.741.693.741.499 0 .71-.314.71-.741v-2.045c0-.427-.202-.741-.71-.741-.507 0-.693.314-.693.741v2.045zm4.368 1.978v-.609h-2.351v.609H291v-.872h.335a.945.945 0 00.245-.704l.199-3.424h1.803v4.122H294v.872l-.332.006zm-1.777-1.581a.969.969 0 01-.231.703h1.585v-3.856h-1.185l-.169 3.153zm2.669-1.3l-.286.434v1.442H294v-3.995h.274v2.114l1.36-2.114h.288l-1.194 1.861 1.272 2.139h-.289l-1.151-1.881zm2.849.996l-.186.885H297l.813-4h.356l.831 4h-.246l-.185-.885h-1.16zm.038-.228h1.084l-.548-2.585-.536 2.585zM331 193.619v.407h-.292v-.428c0-.525-.193-.926-.702-.926-.51 0-.702.401-.702.926v2.557c0 .525.192.917.702.917.509 0 .702-.392.702-.917v-.591H331v.564c0 .708-.292 1.243-1 1.243-.707 0-1-.535-1-1.243v-2.515c0-.708.279-1.242 1-1.242s1 .54 1 1.248zm0-.006c0-.717.306-1.242.993-1.242.688 0 1.007.525 1.007 1.242v2.515c0 .714-.306 1.243-1.007 1.243-.701 0-.993-.529-.993-1.243v-2.515zm.3 2.536c0 .534.194.926.693.926.499 0 .71-.392.71-.926v-2.556c0-.535-.202-.927-.71-.927-.507 0-.693.392-.693.927v2.556zm2.671-3.778c.693 0 .943.372.943 1.065v.285c0 .543-.139.879-.607.985.502.108.693.507.693 1.071v.435c0 .72-.305 1.159-1.01 1.159H333v-5h.971zm-.153 2.205c.555 0 .791-.156.791-.792v-.321c0-.519-.15-.792-.646-.792h-.661v1.905h.516zm.172 2.494c.508 0 .705-.3.705-.864v-.45c0-.651-.278-.879-.818-.879h-.575v2.193h.688zm2.868-2.392v.299h-.691v2.094H337v.3h-1v-5h1v.299h-.833v2.008h.691zm2.003 2.693v-4.7H338v-.3h2v.3h-.861v4.7h-.278zm3.139-3.752v.407h-.279v-.428c0-.525-.192-.926-.701-.926-.51 0-.702.401-.702.926v2.557c0 .525.192.917.702.917.509 0 .701-.392.701-.917v-.591H342v.564c0 .708-.279 1.243-1 1.243s-1-.535-1-1.243v-2.515c0-.708.279-1.242 1-1.242s1 .54 1 1.248zm1.56 1.402l-.286.543v1.801H343v-4.994h.274v2.644l1.36-2.644h.288l-1.194 2.329 1.272 2.671h-.289l-1.151-2.35zm1.849 1.243l-.186 1.107H345l.813-5h.356l.831 5h-.246l-.185-1.107h-1.16zm.038-.284h1.084l-.548-3.232-.536 3.232zm3.789-56.845c-.509 0-.834.186-.834.849v.786c.015.206-.019.413-.096.601H348c.084-.186.121-.393.107-.601v-.78c0-.54.185-.9.644-1.02-.44-.114-.644-.451-.644-1.036v-.435c0-.705.268-1.128.957-1.128H350v5h-.292v-2.236h-.472zm-.166-2.464c-.486 0-.668.321-.668.858V138c0 .67.306.835.829.835h.471v-2.164h-.632zm2.274 0v4.7H351v-5h2v.3h-1.656zm2.065 3.593l-.185 1.107H353l.814-5h.356l.83 5h-.244l-.186-1.107h-1.161zm.038-.284h1.085l-.541-3.223-.544 3.223zm3.524-3.609c.693 0 .943.372.943 1.065v.285c0 .543-.139.879-.607.985.502.108.693.507.693 1.071v.435c0 .72-.305 1.159-1.01 1.159H356v-5h.971zm-.153 2.205c.541 0 .794-.156.794-.792v-.321c0-.519-.153-.792-.649-.792h-.658v1.905h.513zm.172 2.494c.508 0 .705-.3.705-.864v-.45c0-.651-.278-.879-.832-.879h-.572v2.193h.699zm1.419-.806l-.185 1.107H358l.814-5h.356l.83 5h-.244l-.177-1.107h-1.17zm.038-.284h1.085l-.548-3.232-.537 3.232zm2.846-.959v2.35H361v-5h.293v2.35h1.393v-2.35H363v5h-.301v-2.35h-1.406zm2.602-.595c.76 0 1.105.394 1.105 1.186v.543c0 .729-.285 1.216-1.023 1.216H363v-5h.313v2.055h.582zm.082 2.644c.527 0 .712-.351.712-.9v-.585c0-.6-.245-.864-.794-.864h-.57v2.343l.652.006z" fill="#fff"/><path d="M258.5 228.371c.276 0 .5-.448.5-1 0-.553-.224-1-.5-1s-.5.447-.5 1c0 .552.224 1 .5 1zm-.5 0v5m2-4h-3m1 4s-.213-.764-.762-.96c-.361-.107-.683-.369-.908-.741a2.392 2.392 0 01-.329-1.299l.571.48m1.428 2.52s.32-.764 1.142-.96a2.493 2.493 0 001.364-.741c.338-.372.512-.831.492-1.299l-.856.48m-.142 5.52a1 1 0 100-2 1 1 0 000 2zm0 0v5m1-4h-2m1 4s-.317-.761-1.142-.96a2.493 2.493 0 01-1.364-.741 1.812 1.812 0 01-.492-1.299l.856.48m2.142 2.52s.317-.764 1.142-.96a2.493 2.493 0 001.364-.741c.338-.372.512-.831.492-1.299l-.856.48m7.858 15.52c.552 0 1-.224 1-.5 0-.277-.448-.5-1-.5s-1 .223-1 .5c0 .276.448.5 1 .5zm0 0v6m1-5h-2m1 5s-.317-.761-1.142-.96a2.493 2.493 0 01-1.364-.741 1.812 1.812 0 01-.492-1.299l.856.48m2.142 2.52s.317-.764 1.142-.96a2.493 2.493 0 001.364-.741c.338-.372.512-.831.492-1.299l-.856.48m-7.642-32.48c.276 0 .5-.448.5-1 0-.553-.224-1-.5-1s-.5.447-.5 1c0 .552.224 1 .5 1zm-.5 0v5m2-4h-3m1 4s-.211-.761-.762-.96c-.361-.107-.683-.369-.908-.741a2.392 2.392 0 01-.329-1.299l.571.48m1.428 2.52s.317-.764 1.142-.96a2.493 2.493 0 001.364-.741c.338-.372.512-.831.492-1.299l-.856.48m37.358-14.48a.5.5 0 100-1 .5.5 0 000 1zm.5 0v6m1-4h-3m2 4s-.317-.764-1.142-.96a2.493 2.493 0 01-1.364-.741 1.812 1.812 0 01-.492-1.299l.856.48m2.142 2.52s.211-.761.762-.96c.361-.107.683-.369.908-.741.226-.372.342-.831.329-1.299l-.571.48M323 193.371a1 1 0 100-2 1 1 0 000 2zm0 0v5m1-4h-2m1 4s-.213-.761-.762-.96c-.361-.107-.683-.369-.908-.741a2.392 2.392 0 01-.329-1.299l.571.48m1.428 2.52s.32-.764 1.142-.96a2.493 2.493 0 001.364-.741c.338-.372.512-.831.492-1.299l-.856.48M266 238.371h1" stroke="#fff" stroke-width="3" stroke-linecap="round" stroke-linejoin="round"/><path d="M271 239.1c15.39 1.796 40.381-4.893 51-33.729" stroke="#fff" stroke-width="3" stroke-linecap="round" stroke-linejoin="round" stroke-dasharray="11.97 11.97"/><path d="M323 204.371v-2" stroke="#fff" stroke-width="3" stroke-linecap="round" stroke-linejoin="round"/><path d="M266.155 239.371L264 237.879l3-.508-.845 2zm57.792-36.678a.995.995 0 00.018-.582.996.996 0 00-.837-.732.992.992 0 00-.995.495 1 1 0 00.549 1.448 1.012 1.012 0 001.265-.629z" fill="#fff"/><path d="M285 169.371a62.853 62.853 0 00-1-1" stroke="#fff" stroke-width="3" stroke-linecap="round" stroke-linejoin="round"/><path d="M282 165.371c-31.422-33.655-55.117 21.189-90-16" stroke="#fff" stroke-width="3" stroke-linecap="round" stroke-linejoin="round" stroke-dasharray="12.17 12.17"/><path d="M191 148.371c-.333-.326-.662-.669-1-1" stroke="#fff" stroke-width="3" stroke-linecap="round" stroke-linejoin="round"/><path d="M190.515 146.825a1.023 1.023 0 10-2.04-.164 1.023 1.023 0 002.04.164z" fill="#fff"/><path d="M283 165.371c-.319-.338-.665-.672-1-1" stroke="#fff" stroke-width="3" stroke-linecap="round" stroke-linejoin="round"/><path d="M280 161.371c-19.403-28.077-45.616-22.753-59-18.833" stroke="#fff" stroke-width="3" stroke-linecap="round" stroke-linejoin="round" stroke-dasharray="12.2 12.2"/><path d="M219 143.371h-1" stroke="#fff" stroke-width="3" stroke-linecap="round" stroke-linejoin="round"/><path d="M217.711 142.413a1.002 1.002 0 00-.182 1.84 1.003 1.003 0 001.428-.593 1.003 1.003 0 00-1.246-1.247z" fill="#fff"/><path d="M285 168.371a42.839 42.839 0 01-1-1" stroke="#fff" stroke-width="3" stroke-linecap="round" stroke-linejoin="round"/><path d="M282.969 164.371c-5.454-15.348 2.513-18.998-.811-30" stroke="#fff" stroke-width="3" stroke-linecap="round" stroke-linejoin="round" stroke-dasharray="12.19 12.19"/><path d="M282 133.371a40.066 40.066 0 00-1-2" stroke="#fff" stroke-width="3" stroke-linecap="round" stroke-linejoin="round"/><path d="M281.921 130.98a1.007 1.007 0 00-.938-.609 1 1 0 10.938.609z" fill="#fff"/><path d="M309 210.371a79.297 79.297 0 002-1" stroke="#fff" stroke-width="3" stroke-linecap="round" stroke-linejoin="round"/><path d="M312.42 207.371c3.51-4.133 5.32-9.301 1.253-15.891-1.919-3.116-7.536-4.828-13.615-7.89-6.273-3.164-13.042-7.758-16.745-16.8-2.582-6.309 11.384 2.174 20.686-1.732" stroke="#fff" stroke-width="3" stroke-linecap="round" stroke-linejoin="round" stroke-dasharray="12.22 12.22"/><path d="M306 164.371c.35-.298.685-.632 1-1" stroke="#fff" stroke-width="3" stroke-linecap="round" stroke-linejoin="round"/><path d="M311 210.999l-3 .372 1.039-2 1.961 1.628zm-3.335-46.877a1.004 1.004 0 00-.606-1.75 1.004 1.004 0 00-.807 1.667 1.013 1.013 0 001.413.083z" fill="#fff"/><path d="M319 189.371c-4.923-10.861-14.531-2.789-32-16" stroke="#fff" stroke-width="3" stroke-linecap="round" stroke-linejoin="round" stroke-dasharray="12 12"/><path d="M320 189.371l-.33 2-1.67-1.269 2-.731zm-16 3a5.675 5.675 0 00-3.333 1.095 6.41 6.41 0 00-2.21 2.917 7.013 7.013 0 00-.342 3.756 6.688 6.688 0 001.642 3.328 5.877 5.877 0 003.072 1.779 5.572 5.572 0 003.467-.37 6.132 6.132 0 002.693-2.394 6.895 6.895 0 001.011-3.611c0-1.724-.632-3.378-1.757-4.597-1.126-1.219-2.652-1.903-4.243-1.903zm-.581 8.559h1.716v.899h-2.623v-.78c0-1.853 1.798-2.158 1.798-3.975 0-.567-.18-.718-.48-.718s-.48.169-.48.619v.676h-.86v-.613c0-1.007.464-1.581 1.354-1.581.89 0 1.351.574 1.351 1.581 0 1.978-1.805 2.717-1.805 3.749.006.048.016.096.029.143z" fill="#fff"/><path d="M282 167.371a5 5 0 10-.001-10.001 5 5 0 00.001 10z" fill="#2D92CC"/><path d="M230.5 238.371a6.5 6.5 0 10-.001 13 6.5 6.5 0 00.001-13zm1.524 4.838c0 .674-.214 1.097-.687 1.3.492.216.687.681.687 1.321v.494c0 1.006-.5 1.583-1.464 1.583-.965 0-1.464-.577-1.464-1.583v-.52h.928v.567c0 .45.195.621.52.621s.52-.153.52-.71v-.494c0-.585-.195-.8-.642-.8h-.33v-.9h.385c.364 0 .587-.161.587-.666v-.351c0-.564-.195-.717-.52-.717s-.52.169-.52.619v.405h-.928v-.34c0-1.009.499-1.584 1.464-1.584.964 0 1.464.575 1.464 1.584v.171zm50.476-87.838a6.5 6.5 0 10-.001 13 6.5 6.5 0 00.001-13zm.476 9.458h-.983v-4.799h-.759v-.702c.759 0 .928-.369 1.081-.78h.661v6.281z" fill="#fff"/></svg>