<svg width="421" height="142" viewBox="0 0 421 142" fill="none" xmlns="http://www.w3.org/2000/svg">
<path d="M0.171875 66V1.27273H28.1108C32.9148 1.27273 37.1183 2.14713 40.7212 3.89595C44.3242 5.64477 47.1265 8.16264 49.1282 11.4496C51.1299 14.7365 52.1307 18.6766 52.1307 23.2699C52.1307 27.9053 51.0982 31.8138 49.0334 34.9954C46.9896 38.177 44.1135 40.579 40.4052 42.2013C36.7179 43.8237 32.4091 44.6349 27.4787 44.6349H10.7912V30.9815H23.9389C26.0038 30.9815 27.7631 30.7287 29.217 30.223C30.6919 29.6963 31.8191 28.864 32.5987 27.7262C33.3994 26.5884 33.7997 25.103 33.7997 23.2699C33.7997 21.4157 33.3994 19.9092 32.5987 18.7504C31.8191 17.5704 30.6919 16.7066 29.217 16.1587C27.7631 15.5898 26.0038 15.3054 23.9389 15.3054H17.7443V66H0.171875ZM38.098 36.2912L54.2798 66H35.1903L19.3878 36.2912H38.098ZM97.9265 1.27273H115.499V42.7386C115.499 47.669 114.319 51.9357 111.959 55.5387C109.62 59.1206 106.355 61.8913 102.162 63.8509C97.9686 65.7893 93.1014 66.7585 87.56 66.7585C81.9764 66.7585 77.0882 65.7893 72.8952 63.8509C68.7023 61.8913 65.4364 59.1206 63.0977 55.5387C60.7799 51.9357 59.6211 47.669 59.6211 42.7386V1.27273H77.1935V41.2216C77.1935 43.2232 77.636 45.0142 78.521 46.5945C79.4059 48.1536 80.628 49.3757 82.1871 50.2607C83.7674 51.1456 85.5584 51.5881 87.56 51.5881C89.5827 51.5881 91.3737 51.1456 92.9329 50.2607C94.4921 49.3757 95.7141 48.1536 96.5991 46.5945C97.484 45.0142 97.9265 43.2232 97.9265 41.2216V1.27273ZM158.743 21.5C158.574 19.393 157.784 17.7495 156.372 16.5696C154.982 15.3897 152.864 14.7997 150.02 14.7997C148.208 14.7997 146.722 15.0209 145.563 15.4634C144.426 15.8848 143.583 16.4643 143.035 17.2017C142.487 17.9392 142.203 18.782 142.182 19.7301C142.139 20.5097 142.276 21.2156 142.592 21.8477C142.93 22.4587 143.456 23.017 144.173 23.5227C144.889 24.0073 145.806 24.4498 146.922 24.8501C148.039 25.2505 149.366 25.6087 150.905 25.9247L156.214 27.0625C159.796 27.821 162.862 28.8218 165.411 30.065C167.961 31.3081 170.047 32.7725 171.669 34.4581C173.292 36.1226 174.482 37.9979 175.241 40.0838C176.02 42.1697 176.42 44.4453 176.441 46.9105C176.42 51.1667 175.356 54.7696 173.249 57.7195C171.142 60.6693 168.129 62.9132 164.21 64.4513C160.312 65.9895 155.624 66.7585 150.146 66.7585C144.52 66.7585 139.611 65.9263 135.418 64.2617C131.246 62.5972 128.001 60.0372 125.684 56.5817C123.387 53.1051 122.228 48.6593 122.207 43.2443H138.895C139 45.2249 139.495 46.8894 140.38 48.2379C141.265 49.5864 142.508 50.6083 144.109 51.3036C145.732 51.9989 147.66 52.3466 149.893 52.3466C151.768 52.3466 153.338 52.1148 154.602 51.6513C155.867 51.1877 156.825 50.5451 157.478 49.7234C158.132 48.9016 158.469 47.964 158.49 46.9105C158.469 45.9202 158.142 45.0563 157.51 44.3189C156.899 43.5604 155.888 42.8861 154.476 42.2962C153.064 41.6851 151.157 41.1162 148.755 40.5895L142.308 39.1989C136.577 37.9557 132.057 35.8803 128.749 32.9727C125.462 30.0439 123.83 26.0511 123.851 20.9943C123.83 16.8857 124.925 13.2932 127.138 10.217C129.371 7.11967 132.458 4.70715 136.398 2.9794C140.359 1.25165 144.9 0.387782 150.02 0.387782C155.245 0.387782 159.765 1.26219 163.578 3.01101C167.392 4.75982 170.331 7.22502 172.396 10.4066C174.482 13.5671 175.535 17.2649 175.557 21.5H158.743ZM0.171875 141V76.2727H17.7443V126.841H43.9134V141H0.171875ZM111.201 108.636C111.201 115.842 109.799 121.921 106.997 126.873C104.195 131.803 100.413 135.543 95.6509 138.092C90.8891 140.621 85.5794 141.885 79.7219 141.885C73.8223 141.885 68.4916 140.61 63.7298 138.061C58.989 135.49 55.2174 131.74 52.4151 126.809C49.6339 121.858 48.2433 115.8 48.2433 108.636C48.2433 101.43 49.6339 95.3622 52.4151 90.4318C55.2174 85.4803 58.989 81.7404 63.7298 79.212C68.4916 76.6625 73.8223 75.3878 79.7219 75.3878C85.5794 75.3878 90.8891 76.6625 95.6509 79.212C100.413 81.7404 104.195 85.4803 106.997 90.4318C109.799 95.3622 111.201 101.43 111.201 108.636ZM93.1225 108.636C93.1225 104.759 92.6063 101.494 91.5739 98.8388C90.5625 96.1629 89.056 94.1401 87.0543 92.7706C85.0737 91.38 82.6296 90.6847 79.7219 90.6847C76.8143 90.6847 74.3596 91.38 72.358 92.7706C70.3774 94.1401 68.8709 96.1629 67.8384 98.8388C66.8271 101.494 66.3214 104.759 66.3214 108.636C66.3214 112.513 66.8271 115.79 67.8384 118.466C68.8709 121.12 70.3774 123.143 72.358 124.534C74.3596 125.903 76.8143 126.588 79.7219 126.588C82.6296 126.588 85.0737 125.903 87.0543 124.534C89.056 123.143 90.5625 121.12 91.5739 118.466C92.6063 115.79 93.1225 112.513 93.1225 108.636ZM161.366 97.6378C161.092 96.5211 160.66 95.5413 160.07 94.6985C159.48 93.8346 158.743 93.1077 157.858 92.5178C156.994 91.9067 155.982 91.4537 154.824 91.1587C153.686 90.8427 152.432 90.6847 151.063 90.6847C148.113 90.6847 145.595 91.3905 143.509 92.8022C141.444 94.2139 139.864 96.2472 138.768 98.902C137.694 101.557 137.156 104.759 137.156 108.51C137.156 112.303 137.673 115.547 138.705 118.244C139.737 120.941 141.276 123.006 143.319 124.439C145.363 125.872 147.902 126.588 150.936 126.588C153.612 126.588 155.835 126.198 157.605 125.419C159.396 124.639 160.734 123.533 161.619 122.1C162.504 120.667 162.946 118.982 162.946 117.043L165.98 117.359H151.189V104.844H179.886V113.82C179.886 119.719 178.633 124.766 176.125 128.958C173.639 133.13 170.205 136.333 165.822 138.566C161.461 140.779 156.457 141.885 150.81 141.885C144.51 141.885 138.979 140.547 134.217 137.871C129.455 135.195 125.736 131.382 123.06 126.43C120.406 121.479 119.078 115.589 119.078 108.763C119.078 103.411 119.889 98.6702 121.512 94.5405C123.155 90.4107 125.431 86.9237 128.339 84.0792C131.246 81.2137 134.607 79.054 138.421 77.6001C142.234 76.1252 146.322 75.3878 150.683 75.3878C154.518 75.3878 158.079 75.9356 161.366 77.0312C164.674 78.1058 167.592 79.6439 170.12 81.6456C172.67 83.6262 174.724 85.9755 176.283 88.6935C177.843 91.4116 178.791 94.393 179.128 97.6378H161.366ZM205.653 76.2727V141H188.08V76.2727H205.653ZM248.873 96.5C248.704 94.393 247.914 92.7495 246.502 91.5696C245.112 90.3897 242.994 89.7997 240.15 89.7997C238.337 89.7997 236.852 90.0209 235.693 90.4634C234.555 90.8848 233.713 91.4643 233.165 92.2017C232.617 92.9392 232.333 93.782 232.311 94.7301C232.269 95.5097 232.406 96.2156 232.722 96.8477C233.059 97.4587 233.586 98.017 234.303 98.5227C235.019 99.0073 235.935 99.4498 237.052 99.8501C238.169 100.25 239.496 100.609 241.034 100.925L246.344 102.062C249.926 102.821 252.992 103.822 255.541 105.065C258.091 106.308 260.177 107.772 261.799 109.458C263.421 111.123 264.612 112.998 265.37 115.084C266.15 117.17 266.55 119.445 266.571 121.911C266.55 126.167 265.486 129.77 263.379 132.719C261.272 135.669 258.259 137.913 254.34 139.451C250.442 140.989 245.754 141.759 240.276 141.759C234.65 141.759 229.741 140.926 225.548 139.262C221.376 137.597 218.131 135.037 215.814 131.582C213.517 128.105 212.358 123.659 212.337 118.244H229.025C229.13 120.225 229.625 121.889 230.51 123.238C231.395 124.586 232.638 125.608 234.239 126.304C235.862 126.999 237.79 127.347 240.023 127.347C241.898 127.347 243.468 127.115 244.732 126.651C245.996 126.188 246.955 125.545 247.608 124.723C248.261 123.902 248.599 122.964 248.62 121.911C248.599 120.92 248.272 120.056 247.64 119.319C247.029 118.56 246.018 117.886 244.606 117.296C243.194 116.685 241.287 116.116 238.885 115.589L232.438 114.199C226.707 112.956 222.187 110.88 218.879 107.973C215.592 105.044 213.959 101.051 213.98 95.9943C213.959 91.8857 215.055 88.2932 217.267 85.217C219.501 82.1197 222.588 79.7071 226.528 77.9794C230.489 76.2517 235.029 75.3878 240.15 75.3878C245.375 75.3878 249.894 76.2622 253.708 78.011C257.522 79.7598 260.461 82.225 262.526 85.4066C264.612 88.5671 265.665 92.2649 265.686 96.5H248.873ZM271.486 90.4318V76.2727H327.743V90.4318H308.274V141H290.955V90.4318H271.486ZM351.929 76.2727V141H334.356V76.2727H351.929ZM420.686 100.545H402.861C402.734 99.0705 402.397 97.7326 401.849 96.5316C401.322 95.3306 400.585 94.2982 399.637 93.4343C398.71 92.5494 397.582 91.8751 396.255 91.4116C394.928 90.927 393.421 90.6847 391.736 90.6847C388.786 90.6847 386.289 91.401 384.245 92.8338C382.222 94.2666 380.684 96.3209 379.631 98.9968C378.598 101.673 378.082 104.886 378.082 108.636C378.082 112.598 378.609 115.916 379.662 118.592C380.737 121.247 382.286 123.248 384.308 124.597C386.331 125.924 388.765 126.588 391.609 126.588C393.232 126.588 394.685 126.388 395.971 125.988C397.256 125.566 398.373 124.966 399.321 124.186C400.269 123.406 401.038 122.469 401.628 121.373C402.239 120.257 402.65 119.003 402.861 117.612L420.686 117.739C420.475 120.478 419.706 123.27 418.379 126.114C417.051 128.937 415.165 131.55 412.721 133.952C410.298 136.333 407.296 138.25 403.714 139.704C400.132 141.158 395.971 141.885 391.23 141.885C385.288 141.885 379.957 140.61 375.238 138.061C370.539 135.511 366.82 131.761 364.081 126.809C361.363 121.858 360.004 115.8 360.004 108.636C360.004 101.43 361.395 95.3622 364.176 90.4318C366.957 85.4803 370.708 81.7404 375.427 79.212C380.147 76.6625 385.415 75.3878 391.23 75.3878C395.317 75.3878 399.078 75.9461 402.513 77.0629C405.947 78.1796 408.96 79.8125 411.552 81.9616C414.144 84.0897 416.229 86.7129 417.81 89.8313C419.39 92.9497 420.349 96.5211 420.686 100.545Z" fill="white"/>
</svg>
